<svg width="187" height="145" viewBox="0 0 187 145" fill="none" xmlns="http://www.w3.org/2000/svg">
<path d="M154.093 132.96H136.06C135.745 132.96 135.442 132.834 135.219 132.611C134.996 132.388 134.871 132.086 134.871 131.77C134.871 131.455 134.996 131.152 135.219 130.929C135.442 130.706 135.745 130.581 136.06 130.581H154.093C154.408 130.581 154.711 130.706 154.934 130.929C155.157 131.152 155.282 131.455 155.282 131.77C155.282 132.086 155.157 132.388 154.934 132.611C154.711 132.834 154.408 132.96 154.093 132.96ZM52.4379 54.2654C52.4379 54.2654 51.867 51.8389 58.5755 49.6979C65.284 47.5569 68.9951 44.9877 69.7088 41.9902C69.7088 41.9902 71.2789 49.6979 74.1336 51.1253C74.1336 51.1253 77.7019 39.992 69.4233 35.9954C61.1447 31.9988 51.7243 37.7082 47.8704 45.1304C44.0166 52.5526 44.7303 53.9799 40.7337 58.5474C38.1407 61.5108 19.4663 71.8217 34.0252 83.0977C34.0252 83.0977 44.3021 68.1106 50.0115 69.2525C50.0115 69.2525 51.9879 60.6686 51.7132 59.6794C51.4475 58.7215 46.0181 54.6084 47.8137 50.3961C47.8885 50.2061 48.0001 50.0327 48.1419 49.8859C48.2837 49.739 48.4531 49.6215 48.6404 49.5401C49.4663 49.2114 50.9848 49.4711 52.4379 54.2654Z" fill="black"/>
<path d="M57.6196 80.9781C55.6531 80.9785 53.1001 77.1584 49.8287 69.3286C49.8115 69.2808 49.8134 69.2281 49.8339 69.1816C49.8544 69.135 49.8921 69.0981 49.939 69.0786C49.986 69.059 50.0387 69.0583 50.0862 69.0765C50.1337 69.0947 50.1724 69.1304 50.1943 69.1764C54.2947 78.9894 56.5975 80.787 57.8151 80.5642C59.6401 80.2304 60.2134 75.0626 60.2804 73.0996C60.1209 71.1715 60.3857 69.2319 61.0563 67.4172C61.0736 67.3736 61.1059 67.3377 61.1473 67.3159C61.1888 67.2941 61.2367 67.2878 61.2823 67.2982C64.4146 67.9873 67.0298 67.4886 69.0534 65.8166C74.1562 61.5992 73.9381 51.2351 73.9349 51.1308C73.9342 51.1047 73.9386 51.0788 73.9479 51.0544C73.9572 51.03 73.9713 51.0078 73.9892 50.9888C74.0071 50.9699 74.0286 50.9547 74.0525 50.9441C74.0763 50.9335 74.102 50.9277 74.128 50.927C74.18 50.9276 74.2299 50.9478 74.2676 50.9836C74.3053 51.0194 74.3281 51.0682 74.3314 51.1201C74.3433 51.5531 74.5586 61.7804 69.3064 66.1219C67.2209 67.8454 64.5494 68.383 61.3656 67.7217C60.7686 69.4438 60.5338 71.2706 60.6757 73.0877C60.6662 73.414 60.397 80.4952 57.8864 80.954C57.7984 80.97 57.7091 80.9781 57.6196 80.9781Z" fill="black"/>
<path d="M67.412 59.341C66.9751 59.3355 66.5461 59.2226 66.163 59.0124C65.7799 58.8021 65.4544 58.5009 65.2151 58.1353C65.1874 58.0917 65.1778 58.0391 65.1883 57.9886C65.1988 57.9381 65.2286 57.8936 65.2714 57.8647C65.3141 57.8358 65.3664 57.8247 65.4172 57.8338C65.468 57.8428 65.5133 57.8713 65.5434 57.9132C65.8573 58.3936 66.3408 58.7379 66.8974 58.8775C67.0918 58.9378 67.2962 58.9587 67.4988 58.9389C67.7013 58.9192 67.8979 58.8592 68.0769 58.7625C68.2395 58.6328 68.3745 58.4721 68.4742 58.2896C68.574 58.1072 68.6364 57.9067 68.6578 57.6999C68.751 57.1407 68.6866 56.5665 68.4718 56.0418C68.3809 55.7532 68.3005 55.4613 68.2308 55.1668C68.0091 54.2021 67.7058 52.8818 68.2415 51.619C68.4288 51.1494 68.7157 50.7259 69.0826 50.3779C69.4494 50.0299 69.8874 49.7656 70.3662 49.6033C71.0515 49.4091 71.7816 49.4443 72.445 49.7036C72.494 49.7227 72.5334 49.7605 72.5546 49.8086C72.5757 49.8568 72.5769 49.9114 72.5578 49.9604C72.5387 50.0094 72.501 50.0488 72.4528 50.0699C72.4047 50.0911 72.3501 50.0922 72.3011 50.0732C71.7196 49.8451 71.0795 49.8136 70.4784 49.9835C70.0559 50.1292 69.67 50.3646 69.3469 50.6734C69.0239 50.9823 68.7715 51.3573 68.607 51.7729C68.1209 52.9183 68.4076 54.1665 68.6173 55.0776C68.6915 55.4007 68.7763 55.6802 68.8513 55.9261C69.0872 56.5131 69.1549 57.1543 69.0467 57.7776C69.0164 58.0363 68.9342 58.2862 68.805 58.5124C68.6759 58.7386 68.5024 58.9364 68.295 59.094C68.0313 59.2615 67.7244 59.3474 67.412 59.341ZM66.6163 50.5711C66.5829 50.5711 66.5501 50.5627 66.5208 50.5466C66.4916 50.5305 66.4669 50.5073 66.449 50.4792C65.0062 48.2192 61.4434 49.5918 61.4077 49.6053C61.3833 49.6155 61.3572 49.6207 61.3309 49.6207C61.3045 49.6206 61.2784 49.6153 61.2541 49.605C61.2298 49.5948 61.2078 49.5798 61.1894 49.5609C61.1709 49.5421 61.1565 49.5197 61.1468 49.4952C61.1371 49.4707 61.1324 49.4444 61.133 49.4181C61.1336 49.3917 61.1394 49.3657 61.1501 49.3416C61.1609 49.3176 61.1763 49.2959 61.1956 49.2778C61.2148 49.2598 61.2374 49.2458 61.2622 49.2366C61.301 49.2207 65.1667 47.7339 66.7832 50.2662C66.8023 50.2962 66.813 50.3307 66.8142 50.3662C66.8154 50.4017 66.807 50.4369 66.79 50.4681C66.7729 50.4993 66.7478 50.5253 66.7172 50.5434C66.6867 50.5615 66.6518 50.5711 66.6163 50.5711Z" fill="black"/>
<path d="M65.3697 53.8988C65.4883 53.0796 65.1733 52.356 64.6662 52.2826C64.1591 52.2092 63.6519 52.8138 63.5333 53.633C63.4147 54.4521 63.7297 55.1757 64.2368 55.2491C64.7439 55.3225 65.2511 54.718 65.3697 53.8988Z" fill="black"/>
<path d="M72.1218 54.8761C72.2404 54.0569 71.9254 53.3333 71.4183 53.2599C70.9112 53.1865 70.404 53.7911 70.2854 54.6103C70.1668 55.4294 70.4818 56.153 70.9889 56.2264C71.496 56.2998 72.0032 55.6953 72.1218 54.8761Z" fill="black"/>
<path d="M64.6658 61.7908L64.6484 61.79C63.1354 61.6571 62.1196 61.1718 61.6291 60.3487C61.4399 59.979 61.3334 59.5725 61.317 59.1575C61.3006 58.7424 61.3746 58.3288 61.534 57.9453C61.5549 57.897 61.5941 57.859 61.6429 57.8396C61.6918 57.8203 61.7464 57.8211 61.7947 57.842C61.8429 57.8628 61.8809 57.902 61.9003 57.9509C61.9197 57.9998 61.9188 58.0544 61.898 58.1027C61.8932 58.1138 61.4242 59.233 61.9717 60.1485C62.3936 60.8543 63.3059 61.2737 64.6829 61.3951C64.7337 61.3996 64.7807 61.4236 64.8143 61.4619C64.8479 61.5003 64.8654 61.5501 64.8632 61.6011C64.861 61.652 64.8393 61.7001 64.8025 61.7355C64.7658 61.7708 64.7168 61.7906 64.6658 61.7908ZM61.2402 67.2781C58.5629 66.9447 56.1216 65.5789 54.4365 63.4719C55.2405 67.1392 57.3869 70.3733 60.454 72.5387C60.342 70.7493 60.61 68.9565 61.2402 67.2781Z" fill="black"/>
<path d="M50.6259 104.485C47.2308 104.485 44.4423 104.469 43.7179 104.42C43.5967 104.413 43.4789 104.377 43.3747 104.314C43.2705 104.252 43.1829 104.165 43.1192 104.061C42.1054 102.509 44.4169 95.7139 44.9776 94.1295C41.7851 93.8211 30.806 88.7342 30.3259 88.5114C30.2997 88.4992 30.2765 88.4814 30.2579 88.4593C30.2393 88.4372 30.2258 88.4114 30.2182 88.3835C30.2107 88.3556 30.2093 88.3264 30.2142 88.298C30.2191 88.2695 30.2301 88.2425 30.2466 88.2188L33.8625 82.9852C33.8933 82.9443 33.9387 82.9169 33.9892 82.9088C34.0397 82.9006 34.0914 82.9123 34.1335 82.9414C34.1756 82.9705 34.2048 83.0147 34.2151 83.0648C34.2253 83.115 34.2158 83.1671 34.1884 83.2104L30.7065 88.2501C32.3357 88.999 42.7684 93.7473 45.2535 93.7473C45.2853 93.7473 45.3167 93.755 45.3449 93.7697C45.3732 93.7844 45.3974 93.8057 45.4157 93.8317C45.434 93.8578 45.4457 93.8879 45.4499 93.9194C45.4541 93.951 45.4507 93.983 45.4399 94.013C44.6068 96.3189 42.6248 102.579 43.4515 103.845C43.4814 103.897 43.5238 103.941 43.575 103.972C43.6262 104.003 43.6845 104.022 43.7445 104.025C45.7749 104.159 64.8593 104.035 66.4619 104.025C67.0399 103.15 71.7173 95.9617 70.9493 93.7568C70.104 91.3304 69.5299 89.8447 69.5239 89.8301C69.5071 89.7866 69.5061 89.7387 69.5211 89.6946C69.5361 89.6505 69.5662 89.6131 69.606 89.589L72.603 87.7727C72.0852 86.4976 68.2456 77.5831 60.3497 72.7075C60.3049 72.6798 60.2729 72.6355 60.2608 72.5843C60.2486 72.5331 60.2574 72.4791 60.285 72.4343C60.3127 72.3895 60.357 72.3575 60.4082 72.3454C60.4595 72.3333 60.5134 72.342 60.5582 72.3697C69.1508 77.6758 72.9967 87.6851 73.0344 87.7858C73.0507 87.8291 73.0514 87.8767 73.0364 87.9204C73.0213 87.9641 72.9914 88.0012 72.9519 88.0253L69.9533 89.8424C70.4272 91.0976 70.884 92.3592 71.3236 93.6268C72.2022 96.1492 66.9571 104 66.7335 104.333C66.7154 104.36 66.6911 104.382 66.6627 104.397C66.6342 104.412 66.6024 104.42 66.5701 104.421C66.013 104.425 57.1873 104.485 50.6259 104.485Z" fill="black"/>
<path d="M49.3521 84.0495L45.4507 93.9457L42.7681 93.3351L49.3521 84.0495ZM69.5668 89.9016L65.3562 82.8838L70.8229 89.1403L69.5668 89.9016Z" fill="black"/>
<path d="M89.4088 126.359C88.1154 126.359 86.8451 125.497 86.4248 125.182C86.223 125.397 85.9744 125.563 85.6983 125.667C85.4221 125.771 85.1258 125.811 84.8321 125.782C83.0947 125.567 81.5231 122.78 80.4827 120.935C80.2422 120.481 79.9763 120.041 79.6862 119.616C79.3333 119.163 78.3298 119.73 77.0591 120.448C75.4323 121.367 73.1973 122.628 70.8152 122.548L70.033 122.523C52.6075 121.981 23.0309 120.529 20.7262 116.889C17.9809 112.555 31.1374 89.8614 31.6989 88.8971C31.712 88.8746 31.7295 88.8549 31.7502 88.8392C31.771 88.8234 31.7946 88.8119 31.8198 88.8053C31.845 88.7987 31.8713 88.7971 31.8971 88.8007C31.9229 88.8042 31.9478 88.8128 31.9703 88.8259C31.9928 88.8391 32.0124 88.8565 32.0282 88.8773C32.0439 88.898 32.0554 88.9217 32.0621 88.9469C32.0687 88.9721 32.0702 88.9984 32.0667 89.0242C32.0632 89.05 32.0546 89.0748 32.0414 89.0973C31.905 89.3313 18.4436 112.545 21.0608 116.677C22.6729 119.222 40.527 121.209 70.0453 122.126L70.8283 122.151C73.1029 122.221 75.1896 121.049 76.864 120.103C78.3572 119.259 79.4356 118.648 79.999 119.373C80.3024 119.812 80.5793 120.269 80.828 120.741C81.8292 122.516 83.3418 125.198 84.8809 125.389C85.1437 125.409 85.4075 125.365 85.6489 125.259C85.8903 125.153 86.1018 124.989 86.2646 124.782C86.2991 124.746 86.3461 124.724 86.3962 124.721C86.4463 124.718 86.4956 124.734 86.5342 124.766C86.5541 124.782 88.5048 126.361 90.0669 125.864C90.8658 125.609 91.4431 124.841 91.7837 123.582C91.7921 123.552 91.8079 123.523 91.8297 123.5C91.8515 123.476 91.8786 123.459 91.9087 123.448C91.9389 123.437 91.9712 123.434 92.0028 123.438C92.0345 123.443 92.0646 123.455 92.0906 123.474C92.1116 123.488 94.1781 124.954 95.6637 124.31C96.4761 123.957 96.984 123.022 97.1743 121.533C97.362 119.911 97.119 118.269 96.4697 116.771C95.6605 114.85 93.9747 111.362 91.7793 109.586C91.7416 109.556 91.7165 109.512 91.7088 109.464C91.7012 109.416 91.7115 109.367 91.7378 109.326C91.7641 109.285 91.8046 109.255 91.8515 109.242C91.8985 109.229 91.9486 109.233 91.9922 109.255C92.2381 109.378 98.041 112.291 100.461 114.569C101.71 115.746 102.942 115.806 103.608 115.342C104.359 114.82 104.48 113.679 103.925 112.364C102.584 109.189 94.4647 102.889 93.1091 102.559C93.073 102.55 93.0402 102.531 93.0143 102.504C92.9884 102.478 92.9705 102.444 92.9627 102.408C92.9549 102.372 92.9575 102.334 92.9701 102.299C92.9827 102.264 93.005 102.233 93.0342 102.21C93.0639 102.187 96.0098 99.8742 96.419 97.6915C96.6886 96.2519 96.511 95.1405 95.9313 94.6426C95.4543 94.233 94.6975 94.2056 93.6817 94.5609C92.426 95.0002 91.1323 95.874 89.881 96.7186C88.3034 97.7835 86.6726 98.8846 85.0189 99.2073C83.138 99.5744 81.2273 99.7977 79.8329 99.961C79.0213 100.056 78.3805 100.131 77.95 100.207C75.4402 100.65 69.3205 101.942 66.7033 104.368C66.6647 104.404 66.6135 104.423 66.5609 104.421C66.5083 104.419 66.4587 104.396 66.423 104.357C66.3872 104.319 66.3683 104.267 66.3703 104.215C66.3723 104.162 66.3951 104.113 66.4337 104.077C69.1282 101.58 75.3367 100.266 77.881 99.8167C78.3231 99.7386 78.9689 99.6628 79.7865 99.5673C81.175 99.4047 83.0769 99.1819 84.9432 98.8179C86.5176 98.5107 88.1146 97.4326 89.6589 96.3899C90.9313 95.5311 92.2468 94.643 93.5508 94.187C94.7101 93.7806 95.5979 93.8333 96.1894 94.3416C96.89 94.9431 97.1097 96.1587 96.8087 97.7645C96.4436 99.7124 94.3109 101.66 93.5465 102.304C95.6807 103.3 102.987 109.123 104.29 112.21C105.046 114 104.55 115.17 103.834 115.667C103.037 116.222 101.601 116.186 100.189 114.858C98.4831 113.252 94.9445 111.264 93.0596 110.258C94.7094 112.063 95.9963 114.626 96.8353 116.617C97.5114 118.179 97.764 119.892 97.5676 121.583C97.3587 123.221 96.7707 124.261 95.8207 124.674C94.4282 125.28 92.7071 124.338 92.0898 123.949C91.7016 125.192 91.0625 125.963 90.1867 126.242C89.935 126.321 89.6725 126.36 89.4088 126.359Z" fill="black"/>
<path d="M86.4085 125.117C86.383 125.117 86.3576 125.112 86.334 125.102C86.2853 125.082 86.2464 125.044 86.2258 124.996C86.2053 124.947 86.2049 124.893 86.2246 124.844C86.9533 123.05 83.4968 117.208 82.1039 115.108C82.089 115.087 82.0785 115.062 82.0731 115.036C82.0677 115.011 82.0675 114.984 82.0725 114.958C82.0775 114.932 82.0876 114.908 82.1022 114.886C82.1168 114.864 82.1356 114.845 82.1575 114.831C82.1794 114.816 82.204 114.806 82.2299 114.801C82.2557 114.796 82.2823 114.796 82.3081 114.802C82.3338 114.807 82.3583 114.818 82.3799 114.833C82.4016 114.848 82.42 114.867 82.4342 114.889C82.6435 115.204 87.548 122.64 86.5921 124.993C86.5772 125.03 86.5518 125.061 86.5191 125.083C86.4864 125.105 86.4479 125.117 86.4085 125.117ZM91.9748 123.833C91.9251 123.833 91.8772 123.814 91.8407 123.78C91.8041 123.747 91.7815 123.7 91.7773 123.651C91.359 118.63 86.4145 112.116 86.3645 112.05C86.3477 112.03 86.3352 112.006 86.3277 111.98C86.3202 111.955 86.3179 111.928 86.321 111.902C86.3241 111.875 86.3324 111.85 86.3456 111.827C86.3587 111.804 86.3764 111.783 86.3975 111.767C86.4186 111.751 86.4428 111.739 86.4686 111.733C86.4943 111.726 86.5211 111.725 86.5474 111.729C86.5737 111.733 86.5989 111.742 86.6216 111.756C86.6443 111.77 86.6639 111.788 86.6793 111.81C86.8855 112.079 91.7444 118.481 92.1722 123.618C92.1766 123.67 92.16 123.722 92.1262 123.762C92.0922 123.802 92.0438 123.827 91.9914 123.832C91.9859 123.832 91.9803 123.832 91.9748 123.833ZM78.8535 100.077C78.8193 100.077 78.7857 100.068 78.7559 100.051C78.726 100.034 78.7011 100.01 78.6834 99.9808L71.7604 88.5149C71.7332 88.4699 71.725 88.4159 71.7375 88.3648C71.7501 88.3138 71.7824 88.2698 71.8274 88.2425C71.8724 88.2153 71.9264 88.207 71.9775 88.2196C72.0286 88.2322 72.0726 88.2645 72.0998 88.3095L79.0232 99.7759C79.0413 99.8059 79.0511 99.8403 79.0516 99.8754C79.0521 99.9105 79.0433 99.9451 79.026 99.9756C79.0088 100.006 78.9837 100.032 78.9534 100.049C78.9231 100.067 78.8886 100.076 78.8535 100.076V100.077ZM22.3208 127.751C22.303 127.751 22.2853 127.749 22.2681 127.745C22.2429 127.738 22.2194 127.726 22.1988 127.71C22.1783 127.694 22.161 127.674 22.1481 127.652C22.1353 127.629 22.127 127.604 22.1237 127.578C22.1205 127.552 22.1224 127.526 22.1293 127.501L24.6061 118.513C24.6201 118.462 24.6537 118.419 24.6994 118.393C24.7451 118.367 24.7993 118.361 24.85 118.375C24.9007 118.389 24.9437 118.422 24.9697 118.468C24.9956 118.514 25.0023 118.568 24.9884 118.618L22.5119 127.606C22.5004 127.648 22.4754 127.685 22.4409 127.711C22.4064 127.738 22.3642 127.751 22.3208 127.751ZM70.8216 127.751C70.769 127.751 70.7186 127.731 70.6814 127.693C70.6442 127.656 70.6233 127.606 70.6233 127.553V122.35C70.6233 122.297 70.6442 122.247 70.6814 122.21C70.7186 122.172 70.769 122.151 70.8216 122.151C70.8741 122.151 70.9246 122.172 70.9617 122.21C70.9989 122.247 71.0198 122.297 71.0198 122.35V127.554C71.0198 127.606 70.9989 127.657 70.9617 127.694C70.9246 127.731 70.8741 127.751 70.8216 127.751Z" fill="black"/>
<path d="M176.569 127.751H17.2775C17.2249 127.751 17.1745 127.731 17.1373 127.693C17.1001 127.656 17.0792 127.606 17.0792 127.553C17.0792 127.501 17.1001 127.45 17.1373 127.413C17.1745 127.376 17.2249 127.355 17.2775 127.355H176.569C176.622 127.355 176.672 127.376 176.709 127.413C176.746 127.45 176.767 127.501 176.767 127.553C176.767 127.606 176.746 127.656 176.709 127.693C176.672 127.731 176.622 127.751 176.569 127.751Z" fill="black"/>
<path d="M165.14 121.16H112.498L120.427 83.0979H172.74C172.858 83.0979 172.974 83.1242 173.08 83.1748C173.187 83.2254 173.281 83.2992 173.355 83.3906C173.429 83.4821 173.482 83.5889 173.51 83.7034C173.538 83.818 173.54 83.9373 173.516 84.0526L165.917 120.529C165.879 120.708 165.782 120.868 165.641 120.983C165.499 121.098 165.322 121.16 165.14 121.16Z" fill="#407BFF"/>
<path d="M117.211 83.7291L109.612 120.206C109.588 120.321 109.59 120.44 109.618 120.555C109.645 120.669 109.698 120.776 109.773 120.868C109.847 120.959 109.941 121.033 110.047 121.084C110.154 121.134 110.27 121.16 110.388 121.16H112.497L120.427 83.0979H117.988C117.805 83.0979 117.629 83.1607 117.487 83.2756C117.346 83.3906 117.248 83.5507 117.211 83.7291Z" fill="black"/>
<path d="M158.453 132.96H145.866L137.936 110.122H151.074C151.239 110.122 151.4 110.173 151.534 110.269C151.669 110.364 151.77 110.499 151.824 110.655L159.202 131.907C159.244 132.026 159.256 132.154 159.238 132.279C159.22 132.404 159.173 132.523 159.099 132.626C159.026 132.729 158.929 132.813 158.817 132.871C158.705 132.929 158.58 132.96 158.453 132.96Z" fill="#1551D7"/>
<path d="M135.645 111.175L143.024 132.427C143.078 132.582 143.179 132.717 143.313 132.813C143.447 132.908 143.608 132.96 143.773 132.96H145.866L137.937 110.122H136.394C136.268 110.122 136.143 110.152 136.031 110.21C135.918 110.268 135.821 110.352 135.748 110.455C135.675 110.558 135.627 110.677 135.609 110.803C135.591 110.928 135.603 111.056 135.645 111.175Z" fill="black"/>
<path d="M144.153 100.321H142.06C141.061 100.321 140.252 101.13 140.252 102.129C140.252 103.128 141.061 103.937 142.06 103.937H144.153C145.152 103.937 145.961 103.128 145.961 102.129C145.961 101.13 145.152 100.321 144.153 100.321Z" fill="black"/>
<path d="M108.664 17.5376H84.2058C83.9955 17.5376 83.7938 17.6211 83.6451 17.7699C83.4964 17.9186 83.4128 18.1203 83.4128 18.3306V35.871C83.4128 36.0813 83.4964 36.283 83.6451 36.4317C83.7938 36.5805 83.9955 36.664 84.2058 36.664H99.369L102.439 41.5515C102.475 41.6097 102.526 41.6575 102.587 41.69C102.648 41.7225 102.716 41.7386 102.785 41.7368C102.853 41.735 102.921 41.7153 102.979 41.6797C103.038 41.6441 103.087 41.5937 103.12 41.5336L105.84 36.664H108.664C108.874 36.664 109.076 36.5805 109.224 36.4317C109.373 36.283 109.457 36.0813 109.457 35.871V18.3306C109.457 18.1203 109.373 17.9186 109.224 17.7699C109.076 17.6211 108.874 17.5376 108.664 17.5376Z" fill="#FB9A4D"/>
<path d="M157.122 34.0281H119.888C119.677 34.0281 119.476 34.1116 119.327 34.2603C119.178 34.409 119.095 34.6107 119.095 34.821V55.5516C119.095 55.7619 119.178 55.9636 119.327 56.1123C119.476 56.261 119.677 56.3446 119.888 56.3446H147.708L150.329 60.516C150.365 60.5742 150.416 60.6219 150.477 60.6544C150.538 60.6868 150.606 60.703 150.674 60.7012C150.743 60.6995 150.81 60.6799 150.869 60.6443C150.928 60.6088 150.977 60.5586 151.01 60.4986L153.33 56.3446H157.121C157.331 56.3446 157.533 56.261 157.682 56.1123C157.831 55.9636 157.914 55.7619 157.914 55.5516V34.821C157.914 34.6107 157.831 34.409 157.682 34.2603C157.533 34.1116 157.331 34.0281 157.121 34.0281H157.122Z" fill="#C1E5D9"/>
<path d="M90.4408 28.6531C91.9712 28.6531 91.974 26.2742 90.4408 26.2742C88.9099 26.2742 88.9076 28.6531 90.4408 28.6531ZM96.4356 28.6531C97.966 28.6531 97.9688 26.2742 96.4356 26.2742C94.9048 26.2742 94.9024 28.6531 96.4356 28.6531ZM102.43 28.6531C103.961 28.6531 103.964 26.2742 102.43 26.2742C100.9 26.2742 100.897 28.6531 102.43 28.6531ZM152.847 42.1335H139.145C139.04 42.1335 138.939 42.0918 138.865 42.0174C138.79 41.9431 138.748 41.8422 138.748 41.7371C138.748 41.6319 138.79 41.5311 138.865 41.4567C138.939 41.3823 139.04 41.3406 139.145 41.3406H152.847C152.953 41.3406 153.053 41.3823 153.128 41.4567C153.202 41.5311 153.244 41.6319 153.244 41.7371C153.244 41.8422 153.202 41.9431 153.128 42.0174C153.053 42.0918 152.953 42.1335 152.847 42.1335ZM152.847 45.7483H139.145C139.04 45.7483 138.939 45.7065 138.865 45.6322C138.79 45.5578 138.748 45.457 138.748 45.3518C138.748 45.2466 138.79 45.1458 138.865 45.0714C138.939 44.9971 139.04 44.9553 139.145 44.9553H152.847C152.953 44.9553 153.053 44.9971 153.128 45.0714C153.202 45.1458 153.244 45.2466 153.244 45.3518C153.244 45.457 153.202 45.5578 153.128 45.6322C153.053 45.7065 152.953 45.7483 152.847 45.7483ZM152.847 49.3626H139.145C139.04 49.3626 138.939 49.3209 138.865 49.2465C138.79 49.1722 138.748 49.0713 138.748 48.9662C138.748 48.861 138.79 48.7602 138.865 48.6858C138.939 48.6114 139.04 48.5697 139.145 48.5697H152.847C152.953 48.5697 153.053 48.6114 153.128 48.6858C153.202 48.7602 153.244 48.861 153.244 48.9662C153.244 49.0713 153.202 49.1722 153.128 49.2465C153.053 49.3209 152.953 49.3626 152.847 49.3626ZM134.736 51.2674H124.332C124.017 51.267 123.715 51.1416 123.492 50.9186C123.269 50.6956 123.143 50.3933 123.143 50.0779V40.6257C123.143 40.3103 123.269 40.008 123.492 39.785C123.715 39.562 124.017 39.4366 124.332 39.4363H134.736C135.051 39.4366 135.354 39.562 135.577 39.785C135.8 40.008 135.925 40.3103 135.925 40.6257V50.0779C135.925 50.3933 135.8 50.6956 135.577 50.9186C135.354 51.1416 135.051 51.267 134.736 51.2674ZM124.332 40.2292C124.227 40.2293 124.126 40.2711 124.052 40.3455C123.978 40.4198 123.936 40.5206 123.936 40.6257V50.0779C123.936 50.183 123.978 50.2838 124.052 50.3581C124.126 50.4325 124.227 50.4743 124.332 50.4744H134.736C134.841 50.4743 134.942 50.4325 135.016 50.3581C135.091 50.2838 135.132 50.183 135.132 50.0779V40.6257C135.132 40.5206 135.091 40.4198 135.016 40.3455C134.942 40.2711 134.841 40.2293 134.736 40.2292H124.332Z" fill="black"/>
<path d="M137.067 47.5566H112.675C112.465 47.5566 112.263 47.6402 112.114 47.7889C111.966 47.9376 111.882 48.1393 111.882 48.3496V65.1598C111.882 65.3701 111.966 65.5718 112.114 65.7205C112.263 65.8692 112.465 65.9527 112.675 65.9527H117.615L120.262 70.1658C120.298 70.224 120.35 70.2718 120.41 70.3043C120.471 70.3368 120.539 70.3529 120.608 70.3511C120.677 70.3493 120.744 70.3296 120.803 70.294C120.862 70.2584 120.91 70.208 120.944 70.1479L123.286 65.9527H137.067C137.277 65.9527 137.479 65.8692 137.627 65.7205C137.776 65.5718 137.86 65.3701 137.86 65.1598V48.3496C137.86 48.1393 137.776 47.9376 137.627 47.7889C137.479 47.6402 137.277 47.5566 137.067 47.5566Z" fill="#2CA68F"/>
<path d="M131.723 53.6653H118.02C117.915 53.6653 117.814 53.6235 117.74 53.5492C117.665 53.4748 117.624 53.374 117.624 53.2688C117.624 53.1636 117.665 53.0628 117.74 52.9884C117.814 52.9141 117.915 52.8723 118.02 52.8723H131.723C131.828 52.8723 131.929 52.9141 132.003 52.9884C132.077 53.0628 132.119 53.1636 132.119 53.2688C132.119 53.374 132.077 53.4748 132.003 53.5492C131.929 53.6235 131.828 53.6653 131.723 53.6653ZM131.723 57.2796H118.02C117.915 57.2796 117.814 57.2379 117.74 57.1635C117.665 57.0892 117.624 56.9883 117.624 56.8831C117.624 56.778 117.665 56.6771 117.74 56.6028C117.814 56.5284 117.915 56.4867 118.02 56.4867H131.723C131.828 56.4867 131.929 56.5284 132.003 56.6028C132.077 56.6771 132.119 56.778 132.119 56.8831C132.119 56.9883 132.077 57.0892 132.003 57.1635C131.929 57.2379 131.828 57.2796 131.723 57.2796ZM131.723 60.8944H118.02C117.915 60.8944 117.814 60.8526 117.74 60.7783C117.665 60.7039 117.624 60.6031 117.624 60.4979C117.624 60.3927 117.665 60.2919 117.74 60.2175C117.814 60.1432 117.915 60.1014 118.02 60.1014H131.723C131.828 60.1014 131.929 60.1432 132.003 60.2175C132.077 60.2919 132.119 60.3927 132.119 60.4979C132.119 60.6031 132.077 60.7039 132.003 60.7783C131.929 60.8526 131.828 60.8944 131.723 60.8944Z" fill="black"/>
<path d="M12.4303 102.667H34.6877V105.207H12.4303V102.667Z" fill="#407BFF"/>
<path d="M152.846 73.9934H175.104V76.5325H152.846V73.9934Z" fill="#407BFF"/>
<path d="M34.9303 26.1941H57.1877V28.7332H34.9303V26.1941Z" fill="#FB9A4D"/>
<path d="M131.721 19.3581C131.361 19.3581 131.009 19.2513 130.71 19.0513C130.411 18.8512 130.177 18.5669 130.039 18.2342C129.902 17.9015 129.866 17.5354 129.936 17.1823C130.006 16.8291 130.179 16.5047 130.434 16.2501C130.689 15.9954 131.013 15.822 131.366 15.7518C131.719 15.6815 132.086 15.7176 132.418 15.8554C132.751 15.9932 133.035 16.2265 133.235 16.526C133.435 16.8254 133.542 17.1774 133.542 17.5375C133.542 18.0202 133.35 18.4829 133.008 18.8243C132.667 19.1656 132.204 19.3576 131.721 19.3581ZM131.721 16.1133C131.44 16.1133 131.164 16.1968 130.93 16.3533C130.696 16.5098 130.513 16.7322 130.406 16.9924C130.298 17.2527 130.27 17.539 130.325 17.8153C130.38 18.0916 130.515 18.3453 130.714 18.5445C130.914 18.7437 131.167 18.8793 131.444 18.9343C131.72 18.9892 132.006 18.961 132.266 18.8532C132.527 18.7454 132.749 18.5629 132.906 18.3287C133.062 18.0945 133.146 17.8191 133.146 17.5375C133.145 17.1599 132.995 16.798 132.728 16.531C132.461 16.264 132.099 16.1138 131.721 16.1133ZM82.2687 69.8258C81.9087 69.8257 81.5567 69.7189 81.2574 69.5188C80.9581 69.3187 80.7248 69.0344 80.587 68.7017C80.4493 68.369 80.4132 68.003 80.4835 67.6499C80.5538 67.2967 80.7271 66.9724 80.9817 66.7178C81.2363 66.4632 81.5607 66.2898 81.9139 66.2195C82.267 66.1492 82.633 66.1853 82.9657 66.323C83.2984 66.4608 83.5827 66.6941 83.7828 66.9934C83.9829 67.2928 84.0897 67.6447 84.0898 68.0048C84.0893 68.4876 83.8972 68.9505 83.5558 69.2919C83.2144 69.6333 82.7516 69.8253 82.2687 69.8258ZM82.2687 66.581C81.9871 66.5811 81.7117 66.6647 81.4776 66.8212C81.2434 66.9778 81.061 67.2003 80.9532 67.4605C80.8455 67.7208 80.8174 68.0071 80.8724 68.2834C80.9274 68.5596 81.0632 68.8134 81.2624 69.0125C81.4616 69.2116 81.7154 69.3472 81.9917 69.402C82.268 69.4569 82.5543 69.4286 82.8145 69.3208C83.0747 69.2129 83.2971 69.0303 83.4535 68.7961C83.6099 68.5618 83.6934 68.2864 83.6933 68.0048C83.6928 67.6272 83.5425 67.2652 83.2754 66.9983C83.0084 66.7314 82.6463 66.5813 82.2687 66.581Z" fill="black"/>
<path d="M165.426 63.2419L162.524 62.4489L164.633 59.9431L165.426 63.2419Z" fill="#FD6F41"/>
<path d="M21.9893 80.3204L19.087 79.5275L21.1963 77.0217L21.9893 80.3204ZM105.921 7.52751L103.019 6.73454L105.129 4.22876L105.921 7.52751Z" fill="#FED44A"/>
<path d="M47.511 37.9794L44.6088 37.1864L46.7181 34.6807L47.511 37.9794Z" fill="#674CFB"/>
<path d="M98.3749 134.771L95.4727 133.978L97.582 131.472L98.3749 134.771Z" fill="#2CA68F"/>
</svg>
