<svg id="Layer_1" data-name="Layer 1" xmlns="http://www.w3.org/2000/svg" viewBox="0 0 83.45 97.75"><defs><style>.cls-1{fill:#407bff;fill-rule:evenodd;}</style></defs><path class="cls-1" d="M50,38.66C60.23,48.09,71.34,55.51,81.65,55.4c1.58,0,1.84.79,1.85,2.62.06,11-7.64,22.62-14.65,28.25-5.66-.09-12.07-.14-18.85-.14h-.14V46.58h0C41.4,54.37,32.21,60.51,23.68,60.42c-1.31,0-1.53.66-1.53,2.17,0,9.31,6.57,19.08,12.45,23.63l-3.45,0c-7-5.63-14.71-17.21-14.66-28.25,0-1.83.28-2.64,1.86-2.62,10.31.11,21.42-7.31,31.64-16.74h0" transform="translate(-8.27 -1.13)"/><path class="cls-1" d="M49.94,22h0l20.37,8.67c2.71,1.19,2.93,2.88,2.53,5l-2,12-1.39-9.81c-.39-2,.12-3.17-3.63-4.36L50,28.48h0L34,33.55c-3.75,1.19-3.24,2.33-3.63,4.36L29,47.72l-2-12c-.4-2.16-.18-3.85,2.54-5Z" transform="translate(-8.27 -1.13)"/><path class="cls-1" d="M50.78,10.31l11.83,5a2.42,2.42,0,0,1,1.58,3.14L63,25.94l-.86-6.1c-.24-1.26.07-2-2.26-2.71L50,14h0l-9.89,3.15c-2.33.74-2,1.45-2.26,2.71l-.86,6.1L35.7,18.48a2.42,2.42,0,0,1,1.58-3.14l11.84-5,.34-3.86.48-5.32.49,5.32Z" transform="translate(-8.27 -1.13)"/><path class="cls-1" d="M50,86.13c23,0,41.73.59,41.73,1.33S73,88.78,50,88.78,8.27,88.19,8.27,87.46,27,86.13,50,86.13" transform="translate(-8.27 -1.13)"/><path class="cls-1" d="M50,90.68c15.64,0,28.32.59,28.32,1.32S65.64,93.33,50,93.33,21.68,92.74,21.68,92,34.36,90.68,50,90.68" transform="translate(-8.27 -1.13)"/><path class="cls-1" d="M50,96.22c8.07,0,14.62.59,14.62,1.33S58.07,98.87,50,98.87s-14.62-.59-14.62-1.32S41.93,96.22,50,96.22" transform="translate(-8.27 -1.13)"/></svg>