<svg xmlns="http://www.w3.org/2000/svg" viewBox="0 0 454.68 402.99"><defs><style>.cls-1{fill:#f3f8ff;}.cls-2{fill:#d4e8ff;}.cls-3{fill:#cadefc;}.cls-4{fill:#e3eeff;}.cls-5{fill:#eef9ff;}.cls-6{fill:#f0f6ff;}.cls-10,.cls-7{fill:#dce9ff;}.cls-8{fill:#b6d7ff;}.cls-9{fill:#318fff;}.cls-10{opacity:0.6;}.cls-11{fill:#0053cc;}.cls-12{fill:#ff8b7b;}.cls-13{fill:#0f264c;}.cls-14{fill:#ff5652;}.cls-15{fill:#14365b;}.cls-16{fill:#1d61d8;}.cls-17{fill:#2483e2;}.cls-18{fill:#ea7063;}.cls-19{fill:#0e2942;}.cls-20{fill:#2c6bdb;}</style></defs><g id="Background_2" data-name="Background 2"><path class="cls-1" d="M186.12,78.37c5.48-11.84,1.13-20.26-12.25-20.26-8.4,0-18.81,3.32-28.94,8.71-1.15-3.07-4.37-4.92-9.56-4.92-9.13,0-21.72,5.7-31.59,13.74-2.39-1.79-5.85-2.89-10.29-3.07-8.74-.36-19.33,2.92-28.53,8.24a5.58,5.58,0,0,0-4-1.53c-5-.21-11.85,3.1-15.24,7.38-.21.27-.39.52-.58.78H192.92C197.6,83.25,192.43,78.58,186.12,78.37Z" transform="translate(-20.76 -46.38)"/><path class="cls-1" d="M457.27,96.61a14.7,14.7,0,0,0-1.63-.09c.5-5.68-2.44-9.3-8.72-9.3-4.53,0-10.09,1.89-15.76,5.09,1.62-11-3.57-18.17-15.33-18.17-9.48,0-21.49,4.66-33.35,12.25-1-4.32-4.54-6.91-10.41-6.91-10.32,0-25,8-36.73,19.29,0,0,0,0,0,0C332.79,96.26,329,94.7,324,94.45c-9.82-.51-22,4.09-32.83,11.58a5.33,5.33,0,0,0-4.47-2.15c-5.37-.28-12.77,3.86-17.07,9.39H465.92C470.53,104.88,466.85,97.55,457.27,96.61Z" transform="translate(-20.76 -46.38)"/><path class="cls-1" d="M246.39,116.73s-85.84,98-43.51,283.36h48.45s-65.67-170.81,5.61-275.84C250.82,120.27,246.39,116.73,246.39,116.73Z" transform="translate(-20.76 -46.38)"/><path class="cls-1" d="M93.16,176.79c7.15,1.94,122.67,52.62,130.88,223.3H170.8S196.71,248.16,80,184.66A119,119,0,0,1,93.16,176.79Z" transform="translate(-20.76 -46.38)"/><path class="cls-2" d="M246.39,140c64.31-1.64,106.18,22.85,128.63,35.6-8.16-50.24-70.64-65.54-70.64-65.54l-48.14,3Z" transform="translate(-20.76 -46.38)"/><path class="cls-2" d="M237.93,142.17c38.93,3.63,60.52,21.22,73.15,30.53-1.32-30.9-37.93-44.62-37.93-44.62l-29.26-1.61Z" transform="translate(-20.76 -46.38)"/><path class="cls-2" d="M246.39,122.48l6.27,16,2.17,5.55c.85.12,1.7.26,2.56.4,1.29.19,2.58.41,3.89.65.94-.83,1.87-1.65,2.81-2.45,5.43-4.65,10.84-8.86,16.21-12.68a218.84,218.84,0,0,1,18.75-12c31.6-18,60.1-23.69,77.71-27.4-29.09-23.79-67.74-13.7-86-6.79a104.91,104.91,0,0,0-10.35,4.5l-16.16,16.21-6.84,6.87Z" transform="translate(-20.76 -46.38)"/><path class="cls-2" d="M236.16,142.05c6,.39,12.24,1,18.67,2,.85.12,1.7.26,2.56.4,1.29.19,2.58.41,3.89.65l2,.37c.27-.95.52-1.89.79-2.82A221.42,221.42,0,0,1,272.75,118c.55-1.32,1.11-2.61,1.67-3.9a217.91,217.91,0,0,1,16.37-30.27c11.74-18.17,23.09-30.19,32.34-37.28-36.5-2.36-61.69,23.51-73,40a104.53,104.53,0,0,0-6.71,11l-1.85,11.29-2.41,14.68Z" transform="translate(-20.76 -46.38)"/><path class="cls-2" d="M144.09,155c18.89-5.74,50.39-15.68,92.07-13,6,.39,12.24,1,18.67,2,.85.12,1.7.26,2.56.4,1.29.19,2.58.41,3.89.65l2,.37c2.46.46,4.94,1,7.45,1.54,2.19.48,4.41,1,6.64,1.57L299.05,118l-24.63-3.92-4.59-.72-12.39-2-15.84-2.52-14.18-2.25s-2.4,0-6.41.46C204.27,108.79,159.43,116.93,144.09,155Z" transform="translate(-20.76 -46.38)"/><path class="cls-2" d="M161.08,71.73C175.44,78.3,197.64,88.2,221,107.08a214.35,214.35,0,0,1,18.18,16.47c4.53,4.59,9,9.56,13.47,15,1.6,1.93,3.17,3.92,4.73,6,1.29.19,2.58.41,3.89.65l2,.37c2.46.46,4.94,1,7.45,1.54l10.5-15.53L280.3,130l-7.55-12-2.92-4.62-5.55-8.84-8.72-13.85s-1.94-1.65-5.4-4.12C236.23,76.64,197.56,53.48,161.08,71.73Z" transform="translate(-20.76 -46.38)"/><path class="cls-2" d="M98.64,190.33C64,200,45.57,220,35.65,230.49c-3.88-28.22,27-46.67,27-46.67L89,177.55Z" transform="translate(-20.76 -46.38)"/><path class="cls-2" d="M103.52,190.09c-20.23,8.33-28.9,21.3-34.13,28.35-4.37-16.76,13-30.1,13-30.1l15.4-5.67Z" transform="translate(-20.76 -46.38)"/><path class="cls-2" d="M95.76,181,95,190.56l-.25,3.32c-.44.2-.87.42-1.31.63l-2,1c-.64-.29-1.27-.58-1.91-.85-3.67-1.6-7.25-3-10.75-4.13a123.32,123.32,0,0,0-12-3.33c-19.87-4.44-36-2.81-46.09-1.9,11.66-17.51,34-18.46,44.9-17.75a56.39,56.39,0,0,1,6.27.71l11.31,6L88,176.82Z" transform="translate(-20.76 -46.38)"/><path class="cls-2" d="M104.45,189.74c-3.15,1.19-6.38,2.56-9.66,4.14-.44.2-.87.42-1.31.63l-2,1-1,.53c-.3-.47-.59-.93-.89-1.38a123.6,123.6,0,0,0-8.68-11.78c-.51-.62-1-1.22-1.54-1.82a122,122,0,0,0-13.72-13.51,162,162,0,0,0-23.95-16.32c19.15-7.26,37.39,4.13,46.14,11.12a58,58,0,0,1,5.4,4.8l2.84,5.74,3.7,7.46Z" transform="translate(-20.76 -46.38)"/><path class="cls-2" d="M155.85,181.57c-11,0-29.54-.12-51.4,8.17-3.15,1.19-6.38,2.56-9.66,4.14-.44.2-.87.42-1.31.63l-2,1-1,.53c-1.24.65-2.48,1.33-3.74,2.05-1.09.61-2.19,1.26-3.29,1.93L66.85,187.19l12.53-6.14,2.34-1.14L88,176.82l8.06-3.94,7.22-3.54s1.29-.37,3.51-.8C116.06,166.7,141.39,163.7,155.85,181.57Z" transform="translate(-20.76 -46.38)"/><path class="cls-2" d="M133.09,139.78c-6.61,5.87-16.86,14.82-26.27,28.76a118.65,118.65,0,0,0-7,11.8c-1.67,3.2-3.27,6.6-4.75,10.22-.54,1.29-1.06,2.61-1.56,3.95l-2,1-1,.53c-1.24.65-2.48,1.33-3.74,2.05l-8.16-6.59.26-1,2.07-7.65.8-3,1.52-5.64,2.4-8.84s.76-1.21,2.21-3.09C93.67,154.74,110.57,136,133.09,139.78Z" transform="translate(-20.76 -46.38)"/><rect class="cls-2" x="271.79" y="239.66" width="85.93" height="46.86"/><rect class="cls-3" x="378.48" y="286.04" width="29.64" height="46.86" transform="translate(765.83 572.57) rotate(180)"/><rect class="cls-1" x="356.56" y="200.51" width="2.31" height="153.2"/><rect class="cls-1" x="386.2" y="200.51" width="2.31" height="153.2"/><rect class="cls-1" x="270.63" y="200.51" width="2.31" height="153.2"/><polygon class="cls-2" points="270.63 200.51 358.88 200.51 329.6 180.75 270.63 200.51"/><polygon class="cls-3" points="388.51 200.51 358.88 200.51 329.6 180.75 388.51 200.51"/><path class="cls-4" d="M322.56,400.1s3-26.66-18.66-40.39c6.18,19.33-.14,40.39-.14,40.39Z" transform="translate(-20.76 -46.38)"/><path class="cls-4" d="M310.51,400.1s6.12-21.78,28.23-33a75.2,75.2,0,0,0-12.87,33Z" transform="translate(-20.76 -46.38)"/><path class="cls-4" d="M249.91,400.1s1.09-13,13-19.67a39.06,39.06,0,0,0-3.8,19.67Z" transform="translate(-20.76 -46.38)"/><path class="cls-4" d="M243.1,400.1s.79-21.8,15.24-29.71c-6.46,11.18-6.09,29.71-6.09,29.71Z" transform="translate(-20.76 -46.38)"/><path class="cls-5" d="M468.6,400.1s.57-5.39,6.84-8.16a13.14,13.14,0,0,0-2,8.16Z" transform="translate(-20.76 -46.38)"/><path class="cls-4" d="M388.66,400.1A22.46,22.46,0,0,1,397,379.9c-3.34,5.4-4.38,17-2.82,20.2Z" transform="translate(-20.76 -46.38)"/><path class="cls-4" d="M136.62,400.1c2.17-12.36-.66-41.73-24.9-60.63,10,16.19,13.13,51.13,8.47,60.63Z" transform="translate(-20.76 -46.38)"/><path class="cls-5" d="M472.2,400.1s-.42-9-8.05-12.32c3.41,4.63,3.21,12.32,3.21,12.32Z" transform="translate(-20.76 -46.38)"/></g><g id="Objects"><ellipse class="cls-6" cx="235.57" cy="390.64" rx="211.54" ry="12.35"/><path class="cls-7" d="M413.5,192.76l-51.62,51.61h34.55l37.82-56.46h-9.06A16.51,16.51,0,0,0,413.5,192.76Z" transform="translate(-20.76 -46.38)"/><polygon class="cls-8" points="401.49 148.99 404.43 155.06 408.5 148.99 401.49 148.99"/><path class="cls-7" d="M440.65,197.14H422a2.64,2.64,0,0,1-2.63-2.63h0a2.65,2.65,0,0,1,2.63-2.63h18.68a2.65,2.65,0,0,1,2.63,2.63h0A2.64,2.64,0,0,1,440.65,197.14Z" transform="translate(-20.76 -46.38)"/><path class="cls-7" d="M271.57,294.49l32.37-53.12h98.29a20.15,20.15,0,0,1,20.15,20.15v33Z" transform="translate(-20.76 -46.38)"/><rect class="cls-9" x="195.68" y="181.01" width="119.56" height="94.2"/><polygon class="cls-10" points="254.31 181.01 195.68 274.56 195.68 204.41 210.34 181.01 254.31 181.01"/><polygon class="cls-10" points="292.78 181.01 233.73 275.21 210.51 275.21 269.56 181.01 292.78 181.01"/><path class="cls-9" d="M168.73,437H393.81a61.54,61.54,0,0,0,60.53-50.45H68.12A125.33,125.33,0,0,0,168.73,437Z" transform="translate(-20.76 -46.38)"/><path class="cls-8" d="M281,174.47h57.28A27.67,27.67,0,0,1,366,202.14v93.13a0,0,0,0,1,0,0H281a0,0,0,0,1,0,0V174.47A0,0,0,0,1,281,174.47Z"/><path class="cls-8" d="M94.3,252H139a10.27,10.27,0,0,1,10.27,10.27v34.56a0,0,0,0,1,0,0h-55a0,0,0,0,1,0,0V252A0,0,0,0,1,94.3,252Z"/><rect class="cls-9" x="125.35" y="290.27" width="10.94" height="29.34" transform="translate(415 127.74) rotate(90)"/><polygon class="cls-8" points="413.49 295.26 337.85 295.26 337.85 216.42 413.49 243.81 413.49 295.26"/><path class="cls-7" d="M455.35,331.29v44.19c0,.48,0,1,0,1.45a61.15,61.15,0,0,1-1,9.64H68.12q-3.48-4.65-6.52-9.64c-.6-1-1.18-1.93-1.75-2.91A125,125,0,0,1,43.2,311.5H314.33a57,57,0,0,1,28.55,7.67l8,4.67a55.37,55.37,0,0,0,27.74,7.45Z" transform="translate(-20.76 -46.38)"/><path class="cls-9" d="M455.35,374v1.46c0,.48,0,1,0,1.45H61.6c-.6-1-1.18-1.93-1.75-2.91Z" transform="translate(-20.76 -46.38)"/><path class="cls-7" d="M49,314.93a1.09,1.09,0,0,1-1.09-1.1V282.92A1.09,1.09,0,0,1,49,281.83H253a1.09,1.09,0,0,1,0,2.18H50.12v29.82A1.09,1.09,0,0,1,49,314.93Z" transform="translate(-20.76 -46.38)"/><path class="cls-7" d="M74.52,314.93a1.09,1.09,0,0,1-1.09-1.1V282.92a1.09,1.09,0,1,1,2.18,0v30.91A1.09,1.09,0,0,1,74.52,314.93Z" transform="translate(-20.76 -46.38)"/><path class="cls-7" d="M253,314.93a1.09,1.09,0,0,1-1.09-1.1V282.92a1.09,1.09,0,1,1,2.18,0v30.91A1.09,1.09,0,0,1,253,314.93Z" transform="translate(-20.76 -46.38)"/><path class="cls-7" d="M227.46,314.93a1.09,1.09,0,0,1-1.09-1.1V282.92a1.09,1.09,0,1,1,2.18,0v30.91A1.09,1.09,0,0,1,227.46,314.93Z" transform="translate(-20.76 -46.38)"/><path class="cls-7" d="M202,314.93a1.09,1.09,0,0,1-1.09-1.1V282.92a1.09,1.09,0,1,1,2.18,0v30.91A1.09,1.09,0,0,1,202,314.93Z" transform="translate(-20.76 -46.38)"/><path class="cls-7" d="M176.48,314.93a1.09,1.09,0,0,1-1.09-1.1V282.92a1.09,1.09,0,1,1,2.18,0v30.91A1.09,1.09,0,0,1,176.48,314.93Z" transform="translate(-20.76 -46.38)"/><path class="cls-7" d="M151,314.93a1.09,1.09,0,0,1-1.09-1.1V282.92a1.09,1.09,0,1,1,2.18,0v30.91A1.09,1.09,0,0,1,151,314.93Z" transform="translate(-20.76 -46.38)"/><path class="cls-7" d="M125.5,314.93a1.09,1.09,0,0,1-1.09-1.1V282.92a1.09,1.09,0,1,1,2.18,0v30.91A1.09,1.09,0,0,1,125.5,314.93Z" transform="translate(-20.76 -46.38)"/><path class="cls-7" d="M100,314.93a1.09,1.09,0,0,1-1.09-1.1V282.92a1.09,1.09,0,0,1,2.18,0v30.91A1.09,1.09,0,0,1,100,314.93Z" transform="translate(-20.76 -46.38)"/><path class="cls-9" d="M214.63,356.42H111.76V341.65H214.63A7.38,7.38,0,0,1,222,349h0A7.39,7.39,0,0,1,214.63,356.42Z" transform="translate(-20.76 -46.38)"/><polygon class="cls-10" points="125.73 310.04 112.41 310.04 121.67 295.26 134.99 295.26 125.73 310.04"/><polygon class="cls-10" points="138.92 310.04 131.16 310.04 140.43 295.26 148.18 295.26 138.92 310.04"/><rect class="cls-11" x="91" y="295.27" width="3.3" height="14.78"/><path class="cls-8" d="M238.51,212.58l24-24a12.32,12.32,0,0,1,8.69-3.6h84.9a12.28,12.28,0,0,1,12.28,12.28v15.3Z" transform="translate(-20.76 -46.38)"/><path class="cls-7" d="M220.56,224l30.89-30.89a8.37,8.37,0,0,1,5.91-2.45H371.15a4.42,4.42,0,0,1,4.43,4.42v24.49a4.43,4.43,0,0,1-4.43,4.43Z" transform="translate(-20.76 -46.38)"/><path class="cls-8" d="M351.62,231.28H212.81L217,220.85H344.57a7.6,7.6,0,0,1,7.05,10.43Z" transform="translate(-20.76 -46.38)"/><path class="cls-9" d="M406.89,303.65H394.16a4.75,4.75,0,0,1-4.73-4.73h0a4.74,4.74,0,0,1,4.73-4.72h12.73a4.73,4.73,0,0,1,4.72,4.72h0A4.74,4.74,0,0,1,406.89,303.65Z" transform="translate(-20.76 -46.38)"/><path class="cls-9" d="M406.89,316.23H394.16a4.75,4.75,0,0,1-4.73-4.73h0a4.74,4.74,0,0,1,4.73-4.72h12.73a4.73,4.73,0,0,1,4.72,4.72h0A4.74,4.74,0,0,1,406.89,316.23Z" transform="translate(-20.76 -46.38)"/><path class="cls-12" d="M179.12,163c1.09,1.13,2,2.12,2.93,3.22s1.84,2.16,2.74,3.26c1.8,2.19,3.48,4.48,5.11,6.82a81.42,81.42,0,0,1,8.49,15.27c.28.71.53,1.44.79,2.16l.39,1.09a10.94,10.94,0,0,1,.46,2,13.58,13.58,0,0,1-.84,6.4,30.47,30.47,0,0,1-4.89,8.29,67.74,67.74,0,0,1-12.48,11.84L177.71,219a117,117,0,0,0,8.86-12.76,24.21,24.21,0,0,0,2.65-6.1,2.86,2.86,0,0,0,.06-1.62s0,0,0,0l-.36-.79c-.25-.55-.48-1.09-.74-1.63a86.79,86.79,0,0,0-8.07-12.75c-1.53-2.08-3.15-4.11-4.79-6.14-.81-1-1.65-2-2.49-3l-2.5-2.87Z" transform="translate(-20.76 -46.38)"/><polygon class="cls-12" points="150.34 176.02 154.99 185.22 159.54 181.31 155.81 174.76 150.34 176.02"/><path class="cls-12" d="M135.59,169.12l-2.12,3c-.72,1-1.43,2.09-2.12,3.16-1.38,2.12-2.76,4.25-4,6.42a88.5,88.5,0,0,0-6.66,13.17l-.33.83-.14.38s0,0,0,0-.09.17-.09.45a8.46,8.46,0,0,0,.44,2.47,36.12,36.12,0,0,0,2.81,6.33,146,146,0,0,0,8.17,12.93l-4.38,4.13a77.22,77.22,0,0,1-11.54-12,40,40,0,0,1-4.67-7.67,18.72,18.72,0,0,1-1.53-5.22,12.3,12.3,0,0,1,.07-3.51c0-.31.14-.66.22-1l.16-.56.31-1.06c.39-1.43.89-2.77,1.36-4.14s1-2.67,1.62-4c1.11-2.61,2.4-5.09,3.72-7.55s2.76-4.82,4.27-7.14c.76-1.15,1.53-2.3,2.32-3.44s1.59-2.22,2.53-3.42Z" transform="translate(-20.76 -46.38)"/><path class="cls-12" d="M129.83,216.74l5.1,2.51-4.85,8.82s-3.37-3.46-4.25-7.28Z" transform="translate(-20.76 -46.38)"/><polygon class="cls-12" points="118.54 179.56 114.17 186.65 109.32 181.69 114.17 172.87 118.54 179.56"/><path class="cls-13" d="M165,129.27c-.07.65.22,1.22.63,1.28s.82-.41.89-1.06-.22-1.21-.64-1.27S165.11,128.63,165,129.27Z" transform="translate(-20.76 -46.38)"/><path class="cls-14" d="M165.2,130.48a24.43,24.43,0,0,0,2.47,6c-1.25.89-3.12.13-3.12.13Z" transform="translate(-20.76 -46.38)"/><path class="cls-13" d="M163.19,125.38a.38.38,0,0,1-.18-.71,3.72,3.72,0,0,1,3.45-.1.38.38,0,0,1,.15.51.37.37,0,0,1-.52.15,3,3,0,0,0-2.72.11A.34.34,0,0,1,163.19,125.38Z" transform="translate(-20.76 -46.38)"/><path class="cls-12" d="M143.64,133.92c1.37,5.87,2.94,16.61-1,20.52,0,0,1.84,5.95,12.73,5.95,12,0,5.5-5.95,5.5-5.95-6.6-1.56-6.62-6.41-5.66-11Z" transform="translate(-20.76 -46.38)"/><path class="cls-15" d="M141.13,156.48c-.93-1.88-2-4,0-4.71,2.13-.74,13.87-1.5,18-.1a4.34,4.34,0,0,1,3.11,5.21Z" transform="translate(-20.76 -46.38)"/><path class="cls-16" d="M126.45,430.23a10.36,10.36,0,0,1-2.1-.22.21.21,0,0,1-.14-.15.19.19,0,0,1,.08-.19c.09-.07,2.23-1.58,3.41-1.31a.91.91,0,0,1,.63.44.78.78,0,0,1,0,.91A2.55,2.55,0,0,1,126.45,430.23Zm-1.56-.5c1.2.2,2.83.2,3.17-.25,0,0,.12-.17-.06-.49a.53.53,0,0,0-.38-.26C126.92,428.57,125.63,429.26,124.89,429.73Z" transform="translate(-20.76 -46.38)"/><path class="cls-16" d="M124.4,430a.17.17,0,0,1-.1,0,.19.19,0,0,1-.09-.17c0-.09.11-2.4,1-3.17a1,1,0,0,1,.8-.25.64.64,0,0,1,.62.51c.18.9-1.35,2.65-2.15,3.09Zm1.49-3.25a.67.67,0,0,0-.43.17,4.45,4.45,0,0,0-.84,2.52c.79-.62,1.75-1.94,1.65-2.47,0-.06,0-.18-.29-.21Z" transform="translate(-20.76 -46.38)"/><path class="cls-16" d="M174.58,430.23a14.32,14.32,0,0,1-2.46-.22.19.19,0,0,1-.15-.16.17.17,0,0,1,.09-.19c.4-.24,4-2.27,4.82-.87a.73.73,0,0,1,0,.84C176.6,430.09,175.61,430.23,174.58,430.23Zm-1.86-.51c1.51.21,3.54.19,3.89-.31,0,0,.1-.15-.06-.42C176.07,428.19,173.9,429.11,172.72,429.72Z" transform="translate(-20.76 -46.38)"/><path class="cls-16" d="M172.15,430a.19.19,0,0,1-.1,0,.2.2,0,0,1-.09-.17c0-.09.14-2.25,1.13-3.09a1.34,1.34,0,0,1,1-.33c.53.05.68.33.72.55.15.93-1.67,2.62-2.63,3.05A.11.11,0,0,1,172.15,430Zm1.83-3.25a1,1,0,0,0-.65.25,4.29,4.29,0,0,0-1,2.48c1-.59,2.2-1.93,2.11-2.49,0-.05,0-.2-.39-.23Z" transform="translate(-20.76 -46.38)"/><polygon class="cls-12" points="142.58 383.44 150.59 383.44 150.68 364.88 142.66 364.88 142.58 383.44"/><polygon class="cls-12" points="94.46 383.44 102.47 383.44 105.78 364.88 97.77 364.88 94.46 383.44"/><path class="cls-15" d="M123.77,428.89h-9a.67.67,0,0,0-.66.55l-1.31,7.13A1.23,1.23,0,0,0,114,438c3.14-.05,4.66-.24,8.62-.24,2.44,0,7.47.26,10.83.26s3.68-3.33,2.29-3.63c-6.23-1.35-8.63-3.22-10.67-5A2,2,0,0,0,123.77,428.89Z" transform="translate(-20.76 -46.38)"/><path class="cls-15" d="M171.27,428.89h-8.76a.67.67,0,0,0-.66.55l-1.31,7.13a1.22,1.22,0,0,0,1.21,1.42c3.16-.05,7.71-.24,11.68-.24,4.64,0,8.66.26,14.1.26,3.29,0,4.08-3.33,2.69-3.63-6.33-1.37-11.45-1.52-17-4.86A3.85,3.85,0,0,0,171.27,428.89Z" transform="translate(-20.76 -46.38)"/><path class="cls-9" d="M128.34,156.25c-7.44,1.73-15.27,22.21-15.27,22.21l15.49,10.34a120.55,120.55,0,0,0,9.31-16.94C142,162.48,136,154.49,128.34,156.25Z" transform="translate(-20.76 -46.38)"/><path class="cls-17" d="M134.23,169.31l-6.4,19,.73.49s2.92-4.33,6-10.18Z" transform="translate(-20.76 -46.38)"/><path class="cls-9" d="M178.35,192.06c-.06,8.94-.6,20.07-1.94,33.88H133.54c-.55-6.57,2.34-38.68-5.19-69.69a110.49,110.49,0,0,1,14.27-1.81,158.1,158.1,0,0,1,18.22,0,82.48,82.48,0,0,1,12.42,2.22s3.67,4,4.78,22.6C178.26,182.94,178.38,187.17,178.35,192.06Z" transform="translate(-20.76 -46.38)"/><path class="cls-17" d="M178.35,192.06c-2.6-4.74-7.31-14.24-6.64-19.65l6.33,6.85C178.26,182.94,178.38,187.17,178.35,192.06Z" transform="translate(-20.76 -46.38)"/><path class="cls-9" d="M164.85,163.92c-.68,7.6,16.64,26,16.64,26l13.88-11.31s-5.71-9.89-13-16.91C174.28,153.86,165.61,155.36,164.85,163.92Z" transform="translate(-20.76 -46.38)"/><polygon class="cls-18" points="150.68 364.88 150.63 374.45 142.62 374.45 142.66 364.88 150.68 364.88"/><polygon class="cls-18" points="97.77 364.88 105.78 364.88 104.07 374.45 96.06 374.45 97.77 364.88"/><path class="cls-12" d="M143.85,124.8c-.36,8-1,12.6,2.56,17.24a10.35,10.35,0,0,0,18.12-2.85c2.45-6.85,2.62-18.74-4.73-23A10.45,10.45,0,0,0,143.85,124.8Z" transform="translate(-20.76 -46.38)"/><path class="cls-13" d="M154.18,108.27c-5.21-2.22-11.75-1.77-12.28,2.13-.66,4.77-4.34.32-5.4,7.39-.7,4.62,3.17,20.74,9.06,22.13,8.85,2.09,13.07-8.87,14.12-18.15,0,0,10.45,3.24,9.36-3.53a15.3,15.3,0,0,0-7.91-11S165.72,113,154.18,108.27Z" transform="translate(-20.76 -46.38)"/><path class="cls-12" d="M154.21,128.64a9.51,9.51,0,0,0,2.48,5.33c1.83,1.92,3.58.69,3.78-1.67.18-2.12-.55-5.68-2.72-6.73S154,126.25,154.21,128.64Z" transform="translate(-20.76 -46.38)"/><path class="cls-13" d="M142.62,111.18a6.69,6.69,0,0,1-6.2-1S138.74,116.16,142.62,111.18Z" transform="translate(-20.76 -46.38)"/><path class="cls-7" d="M172,103.74c.08,2.35-1.33,5.36-2.48,7.28a11.54,11.54,0,0,1-1.35,1.92l-31.83,2.86c-10.28-11,1.82-7.55,8.43-8.75,8.75-1.57,9.25-4,18-6.18C169.83,99.08,172,101,172,103.74Z" transform="translate(-20.76 -46.38)"/><path class="cls-9" d="M172,115.56a33.66,33.66,0,0,1-2.67-2.21l-.11-.92-33.36,2.85.17,1.35,27.72-2.36A22.06,22.06,0,0,0,172,115.56Z" transform="translate(-20.76 -46.38)"/><path class="cls-8" d="M172,103.74c.08,2.35-1.33,5.36-2.48,7.28a5.45,5.45,0,0,1-.1-4.06A5,5,0,0,1,172,103.74Z" transform="translate(-20.76 -46.38)"/><path class="cls-15" d="M161.2,226s-6.73,61.25-10.83,84.2C145.87,335.27,128.5,419,128.5,419H113.82s10.43-81.68,12.59-106.56c2.34-27,7.13-86.47,7.13-86.47Z" transform="translate(-20.76 -46.38)"/><path class="cls-11" d="M130.63,413.57c.07,0-1.3,5.64-1.3,5.64H112.82l.11-5Z" transform="translate(-20.76 -46.38)"/><path class="cls-19" d="M156.3,247.77c-10.44,2.06-7.81,41.28-5.77,61.46,2.48-14.26,5.86-41.7,8.15-61.18A3.62,3.62,0,0,0,156.3,247.77Z" transform="translate(-20.76 -46.38)"/><path class="cls-15" d="M176.41,226s3.42,59.92,3.49,84.36C180,335.74,174.31,419,174.31,419H160.73s-3.65-81.76-5.22-106.73C153.8,285,148.23,226,148.23,226Z" transform="translate(-20.76 -46.38)"/><path class="cls-12" d="M179.69,218.25l-3.81.31a2.08,2.08,0,0,0-1.83,2.67l1.58,5.29a2.78,2.78,0,0,0,4.4,1.4,14.18,14.18,0,0,0,4.07-6.78Z" transform="translate(-20.76 -46.38)"/><path class="cls-20" d="M171.1,409.23h0a.15.15,0,0,1-.13-.15c1.51-23,5-78.77,4.94-98.77-.06-20.45-2.49-66.21-3.23-79.75a.13.13,0,0,1,.12-.14.14.14,0,0,1,.15.13c.74,13.54,3.17,59.3,3.23,79.76.06,20-3.43,75.75-4.93,98.79A.15.15,0,0,1,171.1,409.23Z" transform="translate(-20.76 -46.38)"/><path class="cls-11" d="M176.71,413.57c.07,0-.54,5.64-.54,5.64H159.65l-.64-5Z" transform="translate(-20.76 -46.38)"/></g></svg>