<svg xmlns="http://www.w3.org/2000/svg" xmlns:xlink="http://www.w3.org/1999/xlink" viewBox="0 0 700 405.49"><defs><style>.cls-1,.cls-39,.cls-41{fill:none;}.cls-2{isolation:isolate;}.cls-3{fill:#00aeef;}.cls-4{fill:url(#linear-gradient);}.cls-5{fill:url(#linear-gradient-2);}.cls-55,.cls-6{fill:#fff;}.cls-7{clip-path:url(#clip-path);}.cls-8{fill:#efcdaf;}.cls-9{fill:url(#linear-gradient-3);}.cls-10,.cls-11{fill:#cc6362;}.cls-11,.cls-42,.cls-82,.cls-85{opacity:0.5;}.cls-12{fill:url(#linear-gradient-4);}.cls-13{fill:#ffc1cd;}.cls-14{fill:url(#linear-gradient-5);}.cls-15{fill:url(#linear-gradient-6);}.cls-16{fill:url(#linear-gradient-7);}.cls-17{fill:url(#linear-gradient-8);}.cls-18,.cls-19,.cls-47{mix-blend-mode:multiply;}.cls-18{fill:url(#linear-gradient-9);}.cls-19{fill:url(#linear-gradient-10);}.cls-20{fill:#ffb966;}.cls-21{fill:url(#linear-gradient-11);}.cls-22{fill:url(#linear-gradient-12);}.cls-23{fill:#e5918f;}.cls-24{fill:url(#linear-gradient-13);}.cls-25{fill:url(#linear-gradient-14);}.cls-26{fill:url(#linear-gradient-15);}.cls-27{fill:url(#linear-gradient-16);}.cls-28{opacity:0.35;fill:url(#linear-gradient-17);}.cls-28,.cls-54{mix-blend-mode:color-burn;}.cls-29{fill:url(#linear-gradient-18);}.cls-30{fill:url(#linear-gradient-19);}.cls-31{fill:#e8a77d;}.cls-32{fill:url(#linear-gradient-20);}.cls-33{fill:url(#linear-gradient-21);}.cls-34{fill:url(#linear-gradient-22);}.cls-35{fill:url(#linear-gradient-23);}.cls-36{fill:url(#linear-gradient-24);}.cls-37{fill:url(#linear-gradient-25);}.cls-38{fill:#98e7f4;}.cls-39,.cls-41{stroke:#fff;stroke-linecap:round;stroke-linejoin:round;}.cls-39{stroke-width:1.58px;}.cls-40{fill:url(#linear-gradient-26);}.cls-41{stroke-width:1.47px;}.cls-42,.cls-43,.cls-44,.cls-45{fill:#bdf3ff;}.cls-44{opacity:0.3;}.cls-45{opacity:0.1;}.cls-46{fill:url(#linear-gradient-27);}.cls-47{fill:url(#linear-gradient-28);}.cls-48{fill:url(#linear-gradient-29);}.cls-49{fill:url(#linear-gradient-30);}.cls-50{fill:url(#linear-gradient-31);}.cls-51{fill:url(#linear-gradient-32);}.cls-52{fill:url(#linear-gradient-33);}.cls-53{fill:url(#linear-gradient-34);}.cls-54,.cls-55{font-size:26.3px;font-family:Montserrat-Bold, Montserrat;font-weight:700;}.cls-54{fill:#ffaf3b;}.cls-56{fill:url(#linear-gradient-35);}.cls-57{fill:url(#linear-gradient-36);}.cls-58{fill:url(#linear-gradient-37);}.cls-59{fill:url(#linear-gradient-38);}.cls-60{fill:url(#linear-gradient-39);}.cls-61{fill:url(#linear-gradient-40);}.cls-62{fill:url(#linear-gradient-41);}.cls-63{fill:url(#linear-gradient-42);}.cls-64{fill:url(#linear-gradient-43);}.cls-65{fill:url(#linear-gradient-44);}.cls-66{fill:url(#linear-gradient-45);}.cls-67{fill:url(#linear-gradient-46);}.cls-68{fill:url(#linear-gradient-47);}.cls-69{fill:url(#linear-gradient-48);}.cls-70{fill:url(#linear-gradient-49);}.cls-71{fill:url(#linear-gradient-50);}.cls-72{fill:url(#linear-gradient-51);}.cls-73{fill:url(#linear-gradient-52);}.cls-74{fill:url(#linear-gradient-53);}.cls-75{fill:url(#linear-gradient-54);}.cls-76{fill:url(#linear-gradient-55);}.cls-77{fill:url(#linear-gradient-56);}.cls-78{fill:url(#linear-gradient-57);}.cls-79,.cls-84{opacity:0.8;}.cls-79{fill:url(#linear-gradient-58);}.cls-80{fill:url(#linear-gradient-59);}.cls-81{fill:url(#linear-gradient-60);}.cls-83{fill:url(#linear-gradient-61);}.cls-84{fill:url(#linear-gradient-62);}.cls-85{fill:url(#linear-gradient-63);}.cls-86{fill:url(#linear-gradient-64);}.cls-87{fill:url(#linear-gradient-65);}.cls-88{fill:#3156aa;}.cls-89{fill:#ccf2ff;}.cls-90{fill:url(#linear-gradient-66);}.cls-91{fill:url(#linear-gradient-67);}.cls-92{fill:url(#linear-gradient-68);}</style><linearGradient id="linear-gradient" x1="380.11" y1="372.49" x2="380.11" y2="66.26" gradientUnits="userSpaceOnUse"><stop offset="0" stop-color="#7995fd"/><stop offset="1" stop-color="#54deff"/></linearGradient><linearGradient id="linear-gradient-2" x1="380.11" y1="52.12" x2="380.11" y2="332.83" gradientUnits="userSpaceOnUse"><stop offset="0" stop-color="#f9dd68"/><stop offset="1" stop-color="#f9a942"/></linearGradient><clipPath id="clip-path" transform="translate(-22 -49.29)"><circle class="cls-1" cx="405.52" cy="173.47" r="56.57"/></clipPath><linearGradient id="linear-gradient-3" x1="406.43" y1="184.97" x2="406.43" y2="228.52" xlink:href="#linear-gradient"/><linearGradient id="linear-gradient-4" x1="419.42" y1="155.88" x2="419.42" y2="140.12" gradientUnits="userSpaceOnUse"><stop offset="0" stop-color="#00004f"/><stop offset="1" stop-color="#000079"/></linearGradient><linearGradient id="linear-gradient-5" x1="372.61" y1="184.97" x2="372.61" y2="228.52" xlink:href="#linear-gradient"/><linearGradient id="linear-gradient-6" x1="437.24" y1="184.97" x2="437.24" y2="228.52" xlink:href="#linear-gradient"/><linearGradient id="linear-gradient-7" x1="408.2" y1="155.88" x2="408.2" y2="140.13" xlink:href="#linear-gradient-4"/><linearGradient id="linear-gradient-8" x1="391.4" y1="155.88" x2="391.4" y2="140.13" xlink:href="#linear-gradient-4"/><linearGradient id="linear-gradient-9" x1="432.17" y1="202.19" x2="432.17" y2="230.74" gradientUnits="userSpaceOnUse"><stop offset="0" stop-color="#d1d3d4"/><stop offset="1" stop-color="#a7a9ac"/></linearGradient><linearGradient id="linear-gradient-10" x1="378.9" y1="202.19" x2="378.9" y2="230.74" xlink:href="#linear-gradient-9"/><linearGradient id="linear-gradient-11" x1="393.62" y1="180.71" x2="403.39" y2="190.95" xlink:href="#linear-gradient"/><linearGradient id="linear-gradient-12" x1="417.78" y1="180.83" x2="407.72" y2="190.89" xlink:href="#linear-gradient"/><linearGradient id="linear-gradient-13" x1="270.02" y1="449.44" x2="297.99" y2="449.44" gradientUnits="userSpaceOnUse"><stop offset="0" stop-color="aqua"/><stop offset="1" stop-color="#5793fb"/></linearGradient><linearGradient id="linear-gradient-14" x1="323.24" y1="264.07" x2="317.29" y2="223.64" xlink:href="#linear-gradient"/><linearGradient id="linear-gradient-15" x1="312.26" y1="317.69" x2="315.45" y2="440.26" gradientUnits="userSpaceOnUse"><stop offset="0" stop-color="#00006c"/><stop offset="1" stop-color="#5793fb"/></linearGradient><linearGradient id="linear-gradient-16" x1="283.91" y1="318.42" x2="287.11" y2="441" xlink:href="#linear-gradient-15"/><linearGradient id="linear-gradient-17" x1="279.92" y1="296.42" x2="282.37" y2="296.42" gradientUnits="userSpaceOnUse"><stop offset="0" stop-color="#00006c"/><stop offset="1" stop-color="#3049b9"/></linearGradient><linearGradient id="linear-gradient-18" x1="314.83" y1="449.44" x2="342.6" y2="449.44" xlink:href="#linear-gradient-13"/><linearGradient id="linear-gradient-19" x1="299.19" y1="306.04" x2="290.25" y2="226.87" xlink:href="#linear-gradient"/><linearGradient id="linear-gradient-20" x1="303.02" y1="208.41" x2="287.38" y2="178.41" gradientUnits="userSpaceOnUse"><stop offset="0" stop-color="#000051"/><stop offset="1" stop-color="#30389c"/></linearGradient><linearGradient id="linear-gradient-21" x1="276.02" y1="420.86" x2="367.71" y2="236.34" gradientTransform="translate(-117.65 187.06) rotate(-27.73)" gradientUnits="userSpaceOnUse"><stop offset="0" stop-color="#9b00cf"/><stop offset="1" stop-color="#2733fd"/></linearGradient><linearGradient id="linear-gradient-22" x1="365.16" y1="250.71" x2="370.6" y2="226.98" gradientTransform="translate(-71.26 198.51) rotate(-27.73)" gradientUnits="userSpaceOnUse"><stop offset="0" stop-color="#fffffd"/><stop offset="1" stop-color="#54deff"/></linearGradient><linearGradient id="linear-gradient-23" x1="350.79" y1="99.76" x2="350.79" y2="372.39" gradientTransform="translate(164.77 -121.88) rotate(27.72)" xlink:href="#linear-gradient-22"/><linearGradient id="linear-gradient-24" x1="350.79" y1="105.08" x2="350.79" y2="348.92" gradientTransform="translate(164.77 -121.88) rotate(27.72)" xlink:href="#linear-gradient"/><linearGradient id="linear-gradient-25" x1="295.08" y1="261.03" x2="265.76" y2="234.56" xlink:href="#linear-gradient"/><linearGradient id="linear-gradient-26" x1="653.27" y1="291.3" x2="640.17" y2="278.2" gradientUnits="userSpaceOnUse"><stop offset="0" stop-color="#84cf9b"/><stop offset="1" stop-color="#79d3fd"/></linearGradient><linearGradient id="linear-gradient-27" x1="208.12" y1="237.81" x2="208.12" y2="311.81" gradientTransform="translate(27.82 -26.07) rotate(5.79)" xlink:href="#linear-gradient-22"/><linearGradient id="linear-gradient-28" x1="187.82" y1="215.17" x2="181.06" y2="205.33" gradientTransform="matrix(1, 0, 0, 1, 0, 0)" xlink:href="#linear-gradient-22"/><linearGradient id="linear-gradient-29" x1="192.85" y1="449.73" x2="221.05" y2="449.73" xlink:href="#linear-gradient-13"/><linearGradient id="linear-gradient-30" x1="130.81" y1="446.28" x2="155.56" y2="446.28" xlink:href="#linear-gradient-13"/><linearGradient id="linear-gradient-31" x1="188.97" y1="321.03" x2="191.25" y2="416.68" xlink:href="#linear-gradient-4"/><linearGradient id="linear-gradient-32" x1="161.12" y1="321.7" x2="163.4" y2="417.34" xlink:href="#linear-gradient-4"/><linearGradient id="linear-gradient-33" x1="182.16" y1="231.22" x2="182.16" y2="304.36" gradientTransform="matrix(1, 0, 0, 1, 0, 0)" xlink:href="#linear-gradient-22"/><linearGradient id="linear-gradient-34" x1="121.24" y1="232.67" x2="258.66" y2="317.24" gradientTransform="matrix(1.09, 0.15, -0.17, 0.99, 19.95, -27.12)" xlink:href="#linear-gradient-2"/><linearGradient id="linear-gradient-35" x1="147.4" y1="241.52" x2="147.4" y2="320.7" gradientTransform="translate(49.95 -32.96) rotate(9.38)" xlink:href="#linear-gradient-22"/><linearGradient id="linear-gradient-36" x1="191.92" y1="182.36" x2="197.13" y2="204.7" gradientUnits="userSpaceOnUse"><stop offset="0" stop-color="#00b5ff"/><stop offset="1" stop-color="#3049b9"/></linearGradient><linearGradient id="linear-gradient-37" x1="180.76" y1="184.96" x2="185.97" y2="207.3" xlink:href="#linear-gradient-36"/><linearGradient id="linear-gradient-38" x1="533.27" y1="449.62" x2="561.7" y2="449.62" xlink:href="#linear-gradient-13"/><linearGradient id="linear-gradient-39" x1="577.44" y1="449.79" x2="603.96" y2="449.79" xlink:href="#linear-gradient-13"/><linearGradient id="linear-gradient-40" x1="575.6" y1="437.85" x2="575.98" y2="299.32" gradientUnits="userSpaceOnUse"><stop offset="0" stop-color="#8900cf"/><stop offset="1" stop-color="#4f33fd"/></linearGradient><linearGradient id="linear-gradient-41" x1="546.39" y1="307.36" x2="546.82" y2="231.81" xlink:href="#linear-gradient"/><linearGradient id="linear-gradient-42" x1="574.34" y1="307.52" x2="574.77" y2="231.97" xlink:href="#linear-gradient"/><linearGradient id="linear-gradient-43" x1="557.53" y1="213.23" x2="554.23" y2="179.72" xlink:href="#linear-gradient-4"/><linearGradient id="linear-gradient-44" x1="568.96" y1="211.84" x2="565.77" y2="179.39" xlink:href="#linear-gradient-4"/><linearGradient id="linear-gradient-45" x1="595.66" y1="307.64" x2="596.09" y2="232.09" xlink:href="#linear-gradient"/><linearGradient id="linear-gradient-46" x1="581.57" y1="296.74" x2="558.97" y2="252.82" gradientTransform="translate(1174.66 463.24) rotate(171.59)" gradientUnits="userSpaceOnUse"><stop offset="0" stop-color="#160ec0"/><stop offset="1" stop-color="#5451ff"/></linearGradient><linearGradient id="linear-gradient-47" x1="525.96" y1="208.9" x2="522.49" y2="215.44" gradientTransform="matrix(1, 0, 0, 1, 0, 0)" xlink:href="#linear-gradient-22"/><linearGradient id="linear-gradient-48" x1="517.05" y1="214.12" x2="509.3" y2="223.78" xlink:href="#linear-gradient-4"/><linearGradient id="linear-gradient-49" x1="509.92" y1="213.15" x2="514.09" y2="213.15" xlink:href="#linear-gradient-2"/><linearGradient id="linear-gradient-50" x1="510.83" y1="212.42" x2="517.45" y2="200.13" xlink:href="#linear-gradient"/><linearGradient id="linear-gradient-51" x1="509.2" y1="189.23" x2="497.39" y2="212.16" gradientTransform="matrix(1, 0, 0, 1, 0, 0)" xlink:href="#linear-gradient-22"/><linearGradient id="linear-gradient-52" x1="442.36" y1="87.32" x2="412.56" y2="61.7" xlink:href="#linear-gradient-26"/><linearGradient id="linear-gradient-53" x1="634.83" y1="206.45" x2="592.13" y2="162.8" gradientUnits="userSpaceOnUse"><stop offset="0" stop-color="#18288e"/><stop offset="1" stop-color="#79d3fd"/></linearGradient><linearGradient id="linear-gradient-54" x1="152.06" y1="215.82" x2="116" y2="179.39" xlink:href="#linear-gradient"/><linearGradient id="linear-gradient-55" x1="514.2" y1="38.24" x2="546.11" y2="71.11" gradientTransform="matrix(1, 0, 0, 1, 0, 0)" xlink:href="#linear-gradient-22"/><linearGradient id="linear-gradient-56" x1="543.21" y1="87.7" x2="565.66" y2="110.15" xlink:href="#linear-gradient-36"/><linearGradient id="linear-gradient-57" x1="535.37" y1="95.54" x2="557.82" y2="117.99" xlink:href="#linear-gradient-36"/><linearGradient id="linear-gradient-58" x1="512.68" y1="308.98" x2="445.19" y2="259.41" xlink:href="#linear-gradient"/><linearGradient id="linear-gradient-59" x1="474.5" y1="314.79" x2="491.44" y2="329.21" xlink:href="#linear-gradient-36"/><linearGradient id="linear-gradient-60" x1="476.03" y1="312.99" x2="492.96" y2="327.42" xlink:href="#linear-gradient-36"/><linearGradient id="linear-gradient-61" x1="681.47" y1="493.01" x2="606.77" y2="345.04" xlink:href="#linear-gradient"/><linearGradient id="linear-gradient-62" x1="692.28" y1="501.44" x2="610.76" y2="339.95" xlink:href="#linear-gradient"/><linearGradient id="linear-gradient-63" x1="715.54" y1="508.7" x2="612" y2="303.58" xlink:href="#linear-gradient"/><linearGradient id="linear-gradient-64" x1="735.46" y1="547.41" x2="616.08" y2="310.9" xlink:href="#linear-gradient"/><linearGradient id="linear-gradient-65" x1="659.66" y1="456.87" x2="606.98" y2="352.5" xlink:href="#linear-gradient"/><linearGradient id="linear-gradient-66" x1="188.82" y1="67.17" x2="233.46" y2="67.17" xlink:href="#linear-gradient-36"/><linearGradient id="linear-gradient-67" x1="194.24" y1="181.94" x2="249.66" y2="135.15" gradientTransform="matrix(1, 0, 0, 1, 0, 0)" xlink:href="#linear-gradient-22"/><linearGradient id="linear-gradient-68" x1="266.45" y1="166.3" x2="233.34" y2="124.2" xlink:href="#linear-gradient-36"/></defs><g class="cls-2"><g id="OBJECTS"><path class="cls-3" d="M26.38,454.62C14,388.94,27.86,343.94,67.74,310.14c29-24.6,88.91-44.86,109.65-80.16,8.93-15.2,13.87-33.36,20.12-50.51,26.9-73.75,64.1-128.15,151.19-130.13C408.84,48,444.1,75.7,476.92,111.91c23.62,26.05,34.17,61.81,63.76,75.38s88.8,27.55,116.41,48.93c99.37,77,59.52,184.3,42.55,218.14" transform="translate(-22 -49.29)"/><rect class="cls-4" x="291.1" y="37.54" width="178.03" height="338.17" rx="17.49"/><rect class="cls-5" x="295.8" y="42.22" width="168.61" height="329" rx="14.53"/><path class="cls-6" d="M366.23,279l1.47,3a.63.63,0,0,0,.48.35l3.27.47a.64.64,0,0,1,.35,1.09l-2.37,2.31a.61.61,0,0,0-.18.56l.56,3.26a.63.63,0,0,1-.92.67L366,289.16a.62.62,0,0,0-.59,0l-2.93,1.54a.63.63,0,0,1-.92-.67l.55-3.26a.61.61,0,0,0-.18-.56l-2.37-2.31a.64.64,0,0,1,.36-1.09l3.27-.47a.63.63,0,0,0,.48-.35l1.46-3A.64.64,0,0,1,366.23,279Z" transform="translate(-22 -49.29)"/><path class="cls-6" d="M384.46,279l1.46,3a.63.63,0,0,0,.48.35l3.27.47a.64.64,0,0,1,.36,1.09l-2.37,2.31a.64.64,0,0,0-.19.56L388,290a.63.63,0,0,1-.92.67l-2.93-1.54a.62.62,0,0,0-.59,0l-2.93,1.54a.63.63,0,0,1-.92-.67l.56-3.26a.63.63,0,0,0-.18-.56l-2.37-2.31a.64.64,0,0,1,.35-1.09l3.27-.47a.63.63,0,0,0,.48-.35l1.47-3A.64.64,0,0,1,384.46,279Z" transform="translate(-22 -49.29)"/><path class="cls-6" d="M402.68,279l1.46,3a.66.66,0,0,0,.48.35l3.28.47a.64.64,0,0,1,.35,1.09l-2.37,2.31a.61.61,0,0,0-.18.56l.56,3.26a.64.64,0,0,1-.93.67l-2.92-1.54a.64.64,0,0,0-.6,0l-2.92,1.54A.64.64,0,0,1,398,290l.56-3.26a.61.61,0,0,0-.18-.56L396,283.9a.64.64,0,0,1,.35-1.09l3.28-.47a.66.66,0,0,0,.48-.35l1.46-3A.64.64,0,0,1,402.68,279Z" transform="translate(-22 -49.29)"/><path class="cls-6" d="M420.9,279l1.47,3a.63.63,0,0,0,.48.35l3.27.47a.64.64,0,0,1,.35,1.09l-2.37,2.31a.63.63,0,0,0-.18.56l.56,3.26a.63.63,0,0,1-.92.67l-2.93-1.54a.62.62,0,0,0-.59,0l-2.93,1.54a.63.63,0,0,1-.92-.67l.56-3.26a.64.64,0,0,0-.19-.56l-2.36-2.31a.64.64,0,0,1,.35-1.09l3.27-.47a.63.63,0,0,0,.48-.35l1.46-3A.64.64,0,0,1,420.9,279Z" transform="translate(-22 -49.29)"/><path class="cls-6" d="M439.13,279l1.46,3a.64.64,0,0,0,.48.35l3.28.47a.64.64,0,0,1,.35,1.09l-2.37,2.31a.61.61,0,0,0-.18.56l.56,3.26a.64.64,0,0,1-.93.67l-2.93-1.54a.62.62,0,0,0-.59,0l-2.93,1.54a.63.63,0,0,1-.92-.67l.56-3.26a.61.61,0,0,0-.18-.56l-2.37-2.31a.64.64,0,0,1,.35-1.09l3.28-.47a.63.63,0,0,0,.47-.35l1.47-3A.64.64,0,0,1,439.13,279Z" transform="translate(-22 -49.29)"/><circle class="cls-6" cx="383.52" cy="124.17" r="56.57"/><g class="cls-7"><path class="cls-8" d="M415.17,179.72a21,21,0,0,1-1.69-6.16,13.2,13.2,0,0,1-.05-2.12,6.62,6.62,0,0,1,.17-1.24l-.43.12,0-.12-7.62,2.13L398,170.2l0,.12-.43-.12a6.62,6.62,0,0,1,.17,1.24,13.2,13.2,0,0,1,0,2.12,20.58,20.58,0,0,1-1.68,6.16s-.71,1.81-5.61,2.43a20.29,20.29,0,0,0,1.24,3.14q.15.33.33.66c.3.57.64,1.17,1,1.79a20.89,20.89,0,0,0,2.3,3c.9,2.58,2.9,4.74,5.22,5.1a19.9,19.9,0,0,0,3.27.25c.42,0,.82,0,1.22,0l.58-.05.59.05c.39,0,.8,0,1.21,0a20.1,20.1,0,0,0,3.28-.25c2.31-.36,4.31-2.52,5.21-5.1a21.74,21.74,0,0,0,2.31-3c.39-.62.73-1.22,1-1.79s.44-.88.62-1.28a15,15,0,0,0,.86-2.2C415.78,181.84,415.17,179.72,415.17,179.72Z" transform="translate(-22 -49.29)"/><path class="cls-9" d="M447.34,221l-13.78-13.78-1.18,37.21a62.35,62.35,0,0,1-53.71-.06l-.15-4.85-1-32.3-1.82,1.82H365.53c2.12-9.77,5-18.68,14.73-23.81a45,45,0,0,1,11.94-3.58.75.75,0,0,1,.72.44c.24.53.69,1.49,1.36,2.65a.42.42,0,0,1,.18.3c1.77,3,4.92,7.16,9.52,9.06a4.21,4.21,0,0,0,3.23,0c4.59-1.9,7.74-6.07,9.52-9.06a.42.42,0,0,1,.18-.3,26.79,26.79,0,0,0,1.35-2.65.76.76,0,0,1,.72-.44c2.08.73,7.58,2.22,11.45,3.8C444.29,192.8,446.38,208.79,447.34,221Z" transform="translate(-22 -49.29)"/><path class="cls-10" d="M413.48,173.56a12.84,12.84,0,0,1,0-2.12l-.32-.61-7.55,2-7.55-2-.32.61a13.2,13.2,0,0,1,0,2.12c1,1.66,3.55,4.84,7.91,4.85h0C410,178.4,412.46,175.22,413.48,173.56Z" transform="translate(-22 -49.29)"/><path class="cls-8" d="M391.86,155.89s.86,2.87,1.56,6.62c.39,2.06.09,3.1-1.74,2.81-1.42-.22-5-4.47-3.8-8.13A2.81,2.81,0,0,1,391.86,155.89Z" transform="translate(-22 -49.29)"/><path class="cls-8" d="M419.57,165.32a1,1,0,0,1-.24,0c-1.61.16-1.87-.87-1.5-2.84l.15-.79c.68-3.35,1.42-5.83,1.42-5.83a2.8,2.8,0,0,1,4,1.3C424.61,160.85,421,165.1,419.57,165.32Z" transform="translate(-22 -49.29)"/><path class="cls-11" d="M419.33,165.35c-1.61.16-1.87-.87-1.5-2.84l.15-.79.33.14S418.33,165.27,419.33,165.35Z" transform="translate(-22 -49.29)"/><path class="cls-11" d="M391.92,165.35c1.61.16,1.87-.87,1.5-2.84l-.15-.79-.33.14S392.93,165.27,391.92,165.35Z" transform="translate(-22 -49.29)"/><path class="cls-8" d="M405.59,146.43H389.4s1.38,4.69,2.33,10c1.58,8.82,1.95,20.12,13.86,20.12s12.29-11.27,13.86-20.1c.93-5.23,2.34-10,2.34-10Z" transform="translate(-22 -49.29)"/><path class="cls-12" d="M422.53,142.48c-2-5.95-6.68,4.62-6.68,4.62,1.8.73,3.6,9.33,3.6,9.33l1.28-.79h0S424.21,147.46,422.53,142.48Z" transform="translate(-22 -49.29)"/><path class="cls-13" d="M373.26,230.08a96.28,96.28,0,0,0,4.85-11.89L363,212.55a102.16,102.16,0,0,0-8.1,23Z" transform="translate(-22 -49.29)"/><path class="cls-13" d="M437.52,227c-2.31-4.28-6.09-12.23-6.09-12.23l15.47-6.93a261.4,261.4,0,0,0,9,24.67L437.52,227" transform="translate(-22 -49.29)"/><path class="cls-14" d="M385.74,183.15s-10.91,3.3-14.38,7.45c-3.83,4.6-6.47,12.88-11.87,27.34,0,0,12.06,5.82,18.59,6Z" transform="translate(-22 -49.29)"/><path class="cls-15" d="M422.78,182.87s14.07,3.47,16.77,7.15c3.32,4.53,7.85,13,12.15,27.92,0,0-12.14,5.8-18.67,6Z" transform="translate(-22 -49.29)"/><path class="cls-16" d="M392.05,138.48a5.14,5.14,0,0,1,2.48-6.89c7.64-4.2,28.39,1.87,30.8,5.81,3.09,5.07-3,13-12.65,12.78s-14.3-4.43-18.06-2.87-4.36-5.45-4.36-5.45Z" transform="translate(-22 -49.29)"/><path class="cls-17" d="M394.49,146.87l-2.44-8.39s-4.58-1.52-4.58,4c0,2.88.46,3.47,1.14,5.47a26.43,26.43,0,0,0,1.83,7.7l1.29.78s1.8-8.59,3.6-9.32Z" transform="translate(-22 -49.29)"/><path class="cls-18" d="M431.43,203.82s0,.31.1.86.15,1.34.26,2.28.22,2,.35,3.22.23,2.43.35,3.69.19,2.51.28,3.69.12,2.29.18,3.24c.09,1.89.08,3.16.08,3.16l-.17-.85c-.09-.55-.26-1.33-.39-2.27s-.32-2-.45-3.21-.27-2.43-.38-3.69-.2-2.52-.25-3.71-.06-2.29-.08-3.24,0-1.75.05-2.3S431.43,203.82,431.43,203.82Z" transform="translate(-22 -49.29)"/><path class="cls-19" d="M379.65,203.82s0,.31.06.87.06,1.35.05,2.3,0,2.06-.08,3.24-.15,2.45-.24,3.71-.24,2.52-.39,3.69-.32,2.28-.45,3.21-.3,1.72-.39,2.27L378,224s0-1.27.09-3.16c.05-1,.09-2.06.17-3.24s.19-2.44.29-3.69.23-2.52.34-3.69.25-2.28.35-3.22.2-1.73.26-2.28Z" transform="translate(-22 -49.29)"/><path class="cls-20" d="M378.4,235.73s.21,13.41,0,19.25c-.13,3.63-.86,7.58-.84,10.15,0,1.56.14,2.71.81,3.23,3.77.93,21.49,2.33,29.19,2.38,8.16,0,21-1.38,25-1.78.79-1.48-.06-4.49-.06-8.1,0-10.15.2-25.13.2-25.13H410.31" transform="translate(-22 -49.29)"/><path class="cls-6" d="M405.57,187.39l-3.81,2.68,1.09,4.05a10.46,10.46,0,0,0,5.44,0l1.09-4.05Z" transform="translate(-22 -49.29)"/><path class="cls-21" d="M392.2,181.67l3.83-2.1s2.1,4.29,9.54,7.82a7.18,7.18,0,0,0-1.79,3.21c-.29.87-.88,3.56-.88,3.56S395.46,191.91,392.2,181.67Z" transform="translate(-22 -49.29)"/><path class="cls-22" d="M418.94,181.67l-3.83-2.1s-2.1,4.29-9.54,7.82a7.18,7.18,0,0,1,1.79,3.21c.29.87.88,3.56.88,3.56S415.69,191.91,418.94,181.67Z" transform="translate(-22 -49.29)"/><path class="cls-6" d="M407.75,194.16l-2.18-.6-2.18.6s-5.16,42.86-4.93,46.63c.47,7.52,4.88,14.38,6.51,16.68a.73.73,0,0,0,1.2,0c1.63-2.3,6-9.16,6.51-16.68C412.91,237,407.75,194.16,407.75,194.16Z" transform="translate(-22 -49.29)"/></g><path class="cls-23" d="M282.88,437.52l-1.27,7.29c0,1.14-2.21,2.54-3.5,2.57-3.21.05-6.37-2.57-6.37-2.57l.79-8.27Z" transform="translate(-22 -49.29)"/><path class="cls-24" d="M298,453.36c0-1.42-12.51-6.89-16.38-8.55,0,0-7.11-.38-9.92-.56-1.92,1.93-1.86,7.8-1.4,9.34a1.45,1.45,0,0,0,1.4,1h25.76a.54.54,0,0,0,.54-.53Z" transform="translate(-22 -49.29)"/><path class="cls-8" d="M354.6,262.44l-22.19,2.22-3.37-9.6-12.5,2.29s4.18,10.15,6.81,16.43c1.22,2.93,7.66,2.23,15.22.06,10.11-2.9,18.14-5.48,18.14-5.48Z" transform="translate(-22 -49.29)"/><path class="cls-25" d="M319.53,228a273,273,0,0,1,10.91,29.21s-4.1,3.24-12.92,4.85S319.53,228,319.53,228Z" transform="translate(-22 -49.29)"/><path class="cls-23" d="M326.79,427.37l-.37,17.44c0,1.14-2.21,2.54-3.5,2.57-3.2.05-6.37-2.57-6.37-2.57l-1.21-9.25,1.37-1.79-.07-.38,3.7.13Z" transform="translate(-22 -49.29)"/><path class="cls-26" d="M328.71,440.2c-5.69.55-18.34.91-18.34.91-2-22.49-4.84-49.53-5.16-68-2.16-9.63-4-18.94-5.32-26.53-.56-3.11-1.05-5.93-1.46-8.37-1-6.06-1.56-9.8-1.56-9.8s.18-22.36,4.78-27.67c4.33-5,19.71-5.55,23.42-2.5,1.3,1.07,2.05,23.53,2.27,26.78.06.7.15,2.8.28,5.71l.11,0,1.61,41Z" transform="translate(-22 -49.29)"/><path class="cls-27" d="M284.13,441.61a96.88,96.88,0,0,1-17.44-3.22c2.66-22.66,6.87-49.06,10-66.79.24-10.3-3-35.19-4-44.53-2.74-6.46-5-23.15,0-28.05,4.75-4.61,27.27-2.93,30.7.42,1.2,1.18,0,23.62-.05,26.88,0,.7-.09,2.8-.22,5.71h.11l-1.94,41Z" transform="translate(-22 -49.29)"/><polygon class="cls-28" points="281.47 272.89 279.92 310.03 282.37 319.95 281.47 272.89"/><path class="cls-29" d="M342.59,453.36c.05-1.42-10.42-6-16.16-8.55,0,0-7.12-.38-9.93-.56-1.91,1.93-1.86,7.8-1.4,9.34a1.46,1.46,0,0,0,1.4,1h25.56a.53.53,0,0,0,.53-.53Z" transform="translate(-22 -49.29)"/><path class="cls-30" d="M314.48,223.77a52.27,52.27,0,0,0-9.7-2.34,30.57,30.57,0,0,0-4.26,0c-3.06.29-7.76.78-13,1.77-2.31.43-14.61,4.33-15.31,6.18-1,2.5-4.28,72.88-3.24,73.94,2.33,2.38,43.62,4.28,58.15-1.1-1.15-13.68-3.63-41.31-4.12-46-1.16-11-1.5-21.78-2.84-26.58A8.65,8.65,0,0,0,314.48,223.77Z" transform="translate(-22 -49.29)"/><path class="cls-8" d="M287.54,223.23s6.7,7.25,14.46,5c3.53-1,2.78-6.79,2.78-6.79a3.34,3.34,0,0,1-2.34-1.12,11.37,11.37,0,0,1-.77-2.07c-.62-2.05-1.35-4.84-1.35-4.84l-2.81-.85-8.76-2.68s.48,7.88-.12,11.76A2.14,2.14,0,0,1,287.54,223.23Z" transform="translate(-22 -49.29)"/><path class="cls-31" d="M293.66,213s1.91,4.11,8,5.27c-.62-2.05-1.35-4.84-1.35-4.84l-2.81-.85Z" transform="translate(-22 -49.29)"/><path class="cls-8" d="M297,186.64c1.56.32,6.93-2.78,8.16-1.17s4.36,12.55,5.11,14.8c.47,1.43,2.71,10.59-.3,13.7-3.18,3.29-12.79,1.12-13.91.84-2.9-.75-8.44-3.39-9.34-6l-1.39-16.12Z" transform="translate(-22 -49.29)"/><path class="cls-32" d="M281.43,187.57c-2.91,1.39-4.48,4.58-4,8.65.4,3.49,3.87,8,7.14,11.68,1.62,1.85,3.61,3.57,4.32,4.8l1-1.63s-3.54-4.64-1.85-7.89c1.93-2.86,4.49.1,6,1.31a.31.31,0,0,0,.51-.25c-.05-1.51-.62-2.33.2-5a6.77,6.77,0,0,0-1.44-6.09s10.22-3.06,12.38-6.71c1.8-3,3-8.3,0-9.82s-6.52,1.29-9.05,2.13C288.94,181.3,279.08,180.27,281.43,187.57Z" transform="translate(-22 -49.29)"/><path class="cls-8" d="M293.09,203.69s.54.58.85,2.82,0,4.33-1.26,4.77a4.09,4.09,0,0,1-4.65-2.46c-.82-1.94-1.71-5.4.75-6.67S293.09,203.69,293.09,203.69Z" transform="translate(-22 -49.29)"/><path class="cls-33" d="M312,229h16.27a0,0,0,0,1,0,0V430.81a4,4,0,0,1-4,4H316a4,4,0,0,1-4-4V229A0,0,0,0,1,312,229Z" transform="translate(169.17 -160.14) rotate(27.73)"/><path class="cls-34" d="M355.39,239.46h22.34a0,0,0,0,1,0,0v6.41a1.94,1.94,0,0,1-1.94,1.94H357.34a1.94,1.94,0,0,1-1.94-1.94v-6.41A0,0,0,0,1,355.39,239.46Z" transform="translate(133.43 -191.86) rotate(27.73)"/><path class="cls-35" d="M441.5,105.61a77.56,77.56,0,1,0,32.6,104.74A77.56,77.56,0,0,0,441.5,105.61ZM376.78,228.75a61.55,61.55,0,1,1,83.12-25.86A61.55,61.55,0,0,1,376.78,228.75Z" transform="translate(-22 -49.29)"/><path class="cls-36" d="M437.7,112.85a69.38,69.38,0,1,0,29.14,93.69A69.38,69.38,0,0,0,437.7,112.85Zm-60.92,115.9a61.55,61.55,0,1,1,83.12-25.86A61.55,61.55,0,0,1,376.78,228.75Z" transform="translate(-22 -49.29)"/><path class="cls-8" d="M340.46,302.43c-.34-.08-1-.15-1.84-.24a5,5,0,0,0,2.76-.5c.74-.78-.47-1.42-1.25-1.6s-3.25-.53-4.85-1a21.67,21.67,0,0,1-3-1.2,40.83,40.83,0,0,1,4.48-.52c1.77-.05,2.38-1.13,1.76-1.4s-6-2.65-8.26-2.5c-1.82.12-3.82.48-3.82.48l-26.5-21.88-4.4-14.81-16.32,6.09s6.51,12.79,8.39,16.88,34,20.09,34,20.09.59.8,2.21,2.78a6.39,6.39,0,0,0,2.38,1.79h0l.08,0a4.74,4.74,0,0,0,.64.24c1.16.43,3.39,1.24,4.07,1.38.92.19,4.48.44,5-.16a.48.48,0,0,0,0-.72c1.52,0,3.07-.06,3.48-.49a.61.61,0,0,0,.18-.69,3.59,3.59,0,0,0,2-.47C342.46,303.25,341.25,302.61,340.46,302.43Z" transform="translate(-22 -49.29)"/><path class="cls-37" d="M268.79,233.57c-2.37,6-2.45,11.51,6.95,32.88,0,0,12.83-2.5,20.94-6.85,0,0-3.38-22.91-9.14-28.26S271.82,226,268.79,233.57Z" transform="translate(-22 -49.29)"/><path class="cls-8" d="M367.3,266.22a1.43,1.43,0,0,0-.2-.87s-.07-.07-.11-.1h0a1.75,1.75,0,0,0,.57-.93,1.49,1.49,0,0,0-.22-1.06.1.1,0,1,1,0-.16,1.54,1.54,0,0,0,.48-.81.76.76,0,0,0-.21-.76,8.14,8.14,0,0,0-3-.38c-.42,0-1.44.13-1.46.84,0,.33.3.59.94.8h-.53c-.54,0-1.83.16-1.86,1.07,0,.45.44.81,1.43,1.08-.57.06-1.38.28-1.41,1,0,.45.45.8,1.47,1.06l.47.1c-.46,0-1.43.15-1.45.86,0,.38.38.68,1.25.9a8.61,8.61,0,0,0,3,.23,1.36,1.36,0,0,0,.43-.85,1.48,1.48,0,0,0-.15-.77.56.56,0,0,0-.23-.15.35.35,0,0,0,.19-.06A1.39,1.39,0,0,0,367.3,266.22Z" transform="translate(-22 -49.29)"/><path class="cls-38" d="M78.77,291a10.46,10.46,0,1,1-10.51-10.42A10.46,10.46,0,0,1,78.77,291Z" transform="translate(-22 -49.29)"/><polyline class="cls-39" points="41.71 242.3 45.85 246.28 51.31 238.82"/><path class="cls-40" d="M654.54,284.8a7.87,7.87,0,1,1-7.77-8A7.86,7.86,0,0,1,654.54,284.8Z" transform="translate(-22 -49.29)"/><polyline class="cls-41" points="621.21 235.74 624.27 238.78 628.48 233.25"/><path class="cls-42" d="M115.19,269a2.9,2.9,0,1,1-2.9-2.89A2.89,2.89,0,0,1,115.19,269Z" transform="translate(-22 -49.29)"/><path class="cls-43" d="M109.56,337.25a1.77,1.77,0,1,1-1.77-1.77A1.77,1.77,0,0,1,109.56,337.25Z" transform="translate(-22 -49.29)"/><path class="cls-44" d="M252.1,384.52a1.77,1.77,0,1,1-1.77-1.77A1.77,1.77,0,0,1,252.1,384.52Z" transform="translate(-22 -49.29)"/><path class="cls-45" d="M109.71,399.18a3.69,3.69,0,1,1-3.69-3.69A3.69,3.69,0,0,1,109.71,399.18Z" transform="translate(-22 -49.29)"/><path class="cls-45" d="M676.24,416.26a3.69,3.69,0,1,1-3.68-3.69A3.68,3.68,0,0,1,676.24,416.26Z" transform="translate(-22 -49.29)"/><path class="cls-44" d="M345.63,63.65A3.69,3.69,0,1,1,341.94,60,3.69,3.69,0,0,1,345.63,63.65Z" transform="translate(-22 -49.29)"/><path class="cls-45" d="M157.19,134.26a4.9,4.9,0,1,1-4.9-4.89A4.9,4.9,0,0,1,157.19,134.26Z" transform="translate(-22 -49.29)"/><path class="cls-45" d="M655.38,347.4a4.9,4.9,0,1,1-4.9-4.9A4.91,4.91,0,0,1,655.38,347.4Z" transform="translate(-22 -49.29)"/><path class="cls-43" d="M523,131.21a2.9,2.9,0,1,1-2.89-2.9A2.9,2.9,0,0,1,523,131.21Z" transform="translate(-22 -49.29)"/><path class="cls-38" d="M529.06,389a2.9,2.9,0,1,1-2.9-2.9A2.89,2.89,0,0,1,529.06,389Z" transform="translate(-22 -49.29)"/><path class="cls-43" d="M282.66,110.36h-2.34V108a.92.92,0,0,0-1.84,0v2.34h-2.33a.92.92,0,1,0,0,1.84h2.33v2.33a.92.92,0,1,0,1.84,0V112.2h2.34a.92.92,0,1,0,0-1.84Z" transform="translate(-22 -49.29)"/><path class="cls-43" d="M508.18,238.55h-2.33v-2.33a.92.92,0,0,0-1.84,0v2.33h-2.34a.93.93,0,0,0,0,1.85H504v2.33a.92.92,0,1,0,1.84,0V240.4h2.33a.93.93,0,1,0,0-1.85Z" transform="translate(-22 -49.29)"/><path class="cls-43" d="M489.67,435.61h-2.33v-2.33a.93.93,0,0,0-1.85,0v2.33h-2.33a.93.93,0,0,0,0,1.85h2.33v2.33a.93.93,0,1,0,1.85,0v-2.33h2.33a.93.93,0,1,0,0-1.85Z" transform="translate(-22 -49.29)"/><path class="cls-43" d="M224.67,280.53h-2.33V278.2a.93.93,0,0,0-1.85,0v2.33h-2.33a.93.93,0,0,0,0,1.85h2.33v2.33a.93.93,0,0,0,1.85,0v-2.33h2.33a.93.93,0,0,0,0-1.85Z" transform="translate(-22 -49.29)"/><path class="cls-38" d="M697.88,325.32h-2.33V323a.93.93,0,0,0-1.85,0v2.33h-2.33a.93.93,0,1,0,0,1.85h2.33v2.33a.93.93,0,1,0,1.85,0v-2.33h2.33a.93.93,0,0,0,0-1.85Z" transform="translate(-22 -49.29)"/><path class="cls-8" d="M261.62,262.6a37.91,37.91,0,0,0-7.84,1.13c-9.43,2.13-26.27,5.84-32.34,5.25-5.09-.49-20.57-17-21.25-17.58l5.07-17.7,7.13,8c4,4.54,9,10.14,12.74,14.35l25.61.91s9.23-.21,11.34-.58Z" transform="translate(-22 -49.29)"/><path class="cls-46" d="M202.6,230.18a13.81,13.81,0,0,1,2.58,1.64c4,4.27,14.79,18,14.79,18s-1.32,3.51-11.46,13l-10.61-10.5Z" transform="translate(-22 -49.29)"/><polygon class="cls-47" points="180.93 201.37 185.81 212.81 178.94 206.01 180.93 201.37"/><path class="cls-8" d="M204.76,435.7l-.94,12.52a24.69,24.69,0,0,1-8.89,0l-.55-12.91" transform="translate(-22 -49.29)"/><path class="cls-48" d="M194.79,444.92s1.07.92,4.69.79a4.9,4.9,0,0,1,4.47-.77l9.23,4.52s7.84,3,7.87,5.17c-4.15,0-26.49.35-27.58,0S192.69,446.93,194.79,444.92Z" transform="translate(-22 -49.29)"/><path class="cls-8" d="M150.77,429.92l-6.38,14.55a24.14,24.14,0,0,1-9.19-2.81L139,427" transform="translate(-22 -49.29)"/><path class="cls-49" d="M131,447.54c.91.95,14.06,7.09,15.66,7.09h5.8c1.08,0,3.13.09,3.1-.38-.08-1.21-2.3-4.3-5.73-4.7-.43-.05-4.4-6.45-4.4-6.45-1.19-2.63-4.9-2.23-4.9-2.23-3.81-1.89-4.39-3-4.39-3C132.85,438.82,130.06,446.58,131,447.54Z" transform="translate(-22 -49.29)"/><path class="cls-50" d="M171.44,336.78C172,339.85,183.28,364,187,375.05c.36,28.31,1.5,63.14,1.66,66.06,3.81.66,15.46,1,16.84.48,2.43-27.38,2.59-69.29,2.56-70.45-.63-24.46-3.63-47-3.87-50.61s-.63-23.7-2.35-24.38c-3.81-1.42-13.67-4.7-18.12,1.78C179.1,304.72,171.19,335.38,171.44,336.78Z" transform="translate(-22 -49.29)"/><path class="cls-51" d="M134.92,433.13c.88.71,13.09,6,17.31,6.4,8.11-22.35,21.31-59.84,23.07-66.79,1.39-5.51,3.78-28.88,6.47-39.67l7.65-34.67-20-4.32c-15.84,13.52-17.36,29-16.71,36.74.26,3.14-1,31.07-1.41,38.82C146,390.82,136.93,425.25,134.92,433.13Z" transform="translate(-22 -49.29)"/><path class="cls-52" d="M203.5,230.75c-2.84-2.37-20.56-6.45-26.31-5-6.67,1.73-14.43,3.19-15.58,5.72s-1.82,18.23-2.36,28.07c1.21,6.38,6,29.64,6,33.46s-2,5.45-1.09,6.56c2.14,2.48,16.79,3.53,23.67,3.53,6.12,0,16.54-1.64,17.07-3.6.79-2.91-1.19-2.8-1.46-5.85S205.91,233.51,203.5,230.75Z" transform="translate(-22 -49.29)"/><rect class="cls-53" x="133.37" y="266.88" width="141.38" height="47.79" rx="3.65" transform="translate(-63.35 -15.35) rotate(-8.64)"/><text class="cls-54" transform="matrix(0.99, -0.15, 0.15, 0.99, 130.2, 259.15)">JOIN US</text><text class="cls-55" transform="matrix(0.99, -0.15, 0.15, 0.99, 129.24, 258.51)">JOIN US</text><path class="cls-8" d="M158.17,322.86a10.94,10.94,0,0,0-2.49-3.23h0c-1.23-1.18-2.63-2.15-2.78-2.49-.7-1.57-.57-6-.57-6L151.6,274s2.06-5.67,4.5-11.9c-7.4-1.86-12-4.34-15.79-6-1.55,5.59-3.5,11.28-4,14.29-1.26,7.68,9.37,43.5,9.88,46.25.22,1.34.29,2.45.37,2.75.13.46,0,5.5,1.85,5.88s6.37.25,7.66-.57a3.68,3.68,0,0,0,.63-.51,2,2,0,0,0,1.49.44C158.82,324.38,158.62,324.06,158.17,322.86Z" transform="translate(-22 -49.29)"/><path class="cls-56" d="M164.15,252.29l5-24.46s-14.26,3.36-18,7.7c-4.18,4.87-5.88,8.93-13.44,26.88,5.66,2.67,12.94,5.54,18.12,6.27A134.84,134.84,0,0,0,164.15,252.29Z" transform="translate(-22 -49.29)"/><path class="cls-8" d="M172.15,227s8.12,4.61,14.71-1a98.21,98.21,0,0,1-.89-11.6c0-4.3-13.51-10.66-13.51-10.66L171,202.62s.42,2.42,1,6c.32,2,.82,4.35,1.07,6.86C174,224.34,172.15,227,172.15,227Z" transform="translate(-22 -49.29)"/><path class="cls-31" d="M176.31,215.16s4.34,7.64,10.3,8.78l-.35-3.81Z" transform="translate(-22 -49.29)"/><path class="cls-57" d="M196.83,195s2.2,6-1.74,9.48l-1.88-9.21Z" transform="translate(-22 -49.29)"/><path class="cls-8" d="M174.75,213.18a28.57,28.57,0,0,0,2.07,2.56v0a23.32,23.32,0,0,0,4.12,3.55,17.33,17.33,0,0,0,5.29,2.51,12.28,12.28,0,0,0,2.34.45,9,9,0,0,0,5.34-1c3.15-4.69,3-12.3,2.32-18.07-.28-2.33-.68-4.36-1-5.79s-.5-2.05-.5-2.05a.9.9,0,0,0,0-.16c-1.37-7.45-11.33-7.71-18.18-3.51a12.61,12.61,0,0,0-1.16.8,13.24,13.24,0,0,0-4.41,5.18c-1.61,3.52-.63,7.52,1,10.93l.27.54A31.85,31.85,0,0,0,174.75,213.18Z" transform="translate(-22 -49.29)"/><path class="cls-58" d="M197.44,184.29c-7.16,5.55-12.79-5-19.67-1.45a6.82,6.82,0,0,0-3.63,5.58c-4.21-2.47-9.94,2.24-8.22,12.13,1.93,11.15,7.16,14.89,7.16,14.89-.3-3.57-2.52-11.29.14-12.31,2.16-.81,3.22,1.76,3.55,2.85.24.79.64,2.84.81,3.18l1.68-.22c-.06-1.21-.12-2.9-.16-4.73a9.37,9.37,0,0,0,2-3.55,18.89,18.89,0,0,0,.48-3.29c3.63,1.78,8.52,2.55,14.47-.32C200,195.12,200.93,181.59,197.44,184.29Z" transform="translate(-22 -49.29)"/><path class="cls-8" d="M258.76,256.82a18.31,18.31,0,0,0,3.47-1.22c.88-.55,2.95,0,4,.36s2.19,1.74,3,2.26.3,1.2-1,.88a15,15,0,0,1-2.71-1.08,5.5,5.5,0,0,1-3.22,0" transform="translate(-22 -49.29)"/><path class="cls-8" d="M271.56,262.88c.13-.06.24-.12.27-.19a.89.89,0,0,0-.33-1.17.15.15,0,0,0,.06,0,1,1,0,0,0-.28-1.25l0,0c.18-.38.18-1.13-.51-1.26,0,0-2.29.68-2.67,1.21-.19.26.05.69.47.73h.27a2.36,2.36,0,0,0-.84.56c-.22.29.05.77.52.81a5.38,5.38,0,0,0,.83-.07,2.12,2.12,0,0,0-.73.48.48.48,0,0,0,.48.73,3.75,3.75,0,0,0,.42,0,.92.92,0,0,0-.3.2c-.17.19,0,.54.32.6s2-.06,2.16-.34A.69.69,0,0,0,271.56,262.88Z" transform="translate(-22 -49.29)"/><path class="cls-8" d="M561,433,560,445s-6.23,2.24-10.36,0l-.21-11.65" transform="translate(-22 -49.29)"/><path class="cls-59" d="M560,445a7.67,7.67,0,0,1,1.52,3.61,29.89,29.89,0,0,1,.16,5.23c0,.49-4.73.41-7.46.45s-11.15-.08-13.5,0-5.42,0-7.22,0c-1.09,0,2.43-3.16,4.88-4.19,2.67-1.11,5.6-2.66,8-3.84a22.44,22.44,0,0,1,3.23-1.28S558.49,445.57,560,445Z" transform="translate(-22 -49.29)"/><path class="cls-8" d="M600.39,431.09,602,445s-5.29,2.24-9.43,0l-3-11.65" transform="translate(-22 -49.29)"/><path class="cls-60" d="M602,445a7.36,7.36,0,0,1,1.82,3.72,26.3,26.3,0,0,1-.15,5.59c0,.49-25,.45-26,0s.59-3.31,4.37-4.85c2.68-1.09,3.78-1.38,6.2-2.57,1.77-.86,4.3-1.89,4.3-1.89S600.55,445.57,602,445Z" transform="translate(-22 -49.29)"/><path class="cls-61" d="M547.63,440.32a93,93,0,0,0,18.41,0c.68-8.94,2.25-54.46,2.66-66,.52-1.57,3.95-21,5.21-30.64-.09,13.84.37,31.24.46,31.71,1.54,9.92,9.78,46.5,14.49,65.65,6,.59,15.56-1.86,16.76-2.87-1.08-8.41-6.41-52-8-64.7,1.43-10.37,2.35-22.41,3-32.85.78-2.93,4.93-24.44-5.68-37.45,0,0-22.59.14-32.8.71a60,60,0,0,1-12.14-.24s-3.84,62.86-4.22,67.84C545.66,372.73,547,420.6,547.63,440.32Z" transform="translate(-22 -49.29)"/><path class="cls-8" d="M541.6,241l-21.18,22.89s-3,7.09,5.59,7.51,24.65-18.26,24.65-18.26" transform="translate(-22 -49.29)"/><path class="cls-62" d="M533.11,249.78a63.63,63.63,0,0,0,12.16,13.63l14.26-10,.9-24s-9.68,2.47-12.81,5.49S540.12,242.34,533.11,249.78Z" transform="translate(-22 -49.29)"/><path class="cls-63" d="M550.79,298.82c-.33,3.08-1.65,5-.52,6.58s11.1,2.91,17.69,3c7.41.09,23.17-.43,27-2.57.37-.19,1.44-.78,1.45-1.48,0-1-1.06-2.25-1-4.76,0-3.86,1.5-20.81,2-27.4.1-1.38.23-2.8.37-4.26.89-9.57,2.37-20.64,2.71-26.8a26.8,26.8,0,0,0-3.59-5,20.87,20.87,0,0,0-7.75-5.58l-.07,0a75.25,75.25,0,0,0-15.47-2.75c-11-.48-21.65,4.22-24.28,7-.86.91.81,9.87,1.06,18.88C550.84,272,551,296.74,550.79,298.82Z" transform="translate(-22 -49.29)"/><path class="cls-64" d="M552.91,192.55s-1.32,10.77,3,12.18c3.49,1.15,3.14-3.55,3.14-3.55l.08-5.17" transform="translate(-22 -49.29)"/><path class="cls-8" d="M580.4,228.61s-2.76,7.12-13.21,6.11c-9.09-.88-3.65-6.25-3.65-6.25s.47-1.44,1.05-3.34,1.22-4.15,1.64-5.95l3.64-3,7.71-6.32S576.58,223.61,580.4,228.61Z" transform="translate(-22 -49.29)"/><path class="cls-10" d="M574.59,216.27s-3.15,6.72-10,8.86c.56-1.86,1.22-4.15,1.64-5.95l3.64-3Z" transform="translate(-22 -49.29)"/><path class="cls-8" d="M555.28,198.39s-1.48,21.45,5,23.9c0,0,7.22,1.62,13.59-5.17A20.64,20.64,0,0,0,578,210.3c1.55-4.08,3.94-11.65,2.55-16.53C578.59,186.81,557.38,182.23,555.28,198.39Z" transform="translate(-22 -49.29)"/><path class="cls-8" d="M572.3,205.71s.71-4,3.54-3.25c3.74,1,1.08,10.57-2.74,8.54" transform="translate(-22 -49.29)"/><path class="cls-65" d="M581.12,187.79c-5.74-8.35-14.5-4-24-3.65-1.33,0-2.56,0-3.63-.08h0a24.26,24.26,0,0,0-3.81,0c-.88.32-1,6-.52,8,2.94,12.11,15.94,9.43,19.81,8.34a5.59,5.59,0,0,0,1.24,2.45A4.67,4.67,0,0,0,572.9,204a2.72,2.72,0,0,1,1.92-1.64,2.42,2.42,0,0,1,1,.07,2.22,2.22,0,0,1,1.54,1.56,7.16,7.16,0,0,1-.73,5.4c.31,2.69.63,5.25.86,6.86l1.21-.39a12.94,12.94,0,0,1,1.61-5.27,25.29,25.29,0,0,0,3.14-8.06h0C584.11,201.08,588.08,191.17,581.12,187.79Z" transform="translate(-22 -49.29)"/><path class="cls-8" d="M602.58,250.11s4.45,28.63,3.75,31-8.84,3.83-12.13.33-6.44-25.68-6.44-25.68" transform="translate(-22 -49.29)"/><path class="cls-66" d="M599.12,236.39c-2.19-3.3-10-5.81-10-5.81l-3.74,18.5c-.08,6.17,1.7,19.44,1.7,19.44a55.93,55.93,0,0,0,10.67-.59,69,69,0,0,0,8.82-2.09S603.37,242.77,599.12,236.39Z" transform="translate(-22 -49.29)"/><rect class="cls-67" x="554.71" y="254.14" width="31.16" height="41.37" rx="0.93" transform="translate(1072.24 580.84) rotate(-171.59)"/><path class="cls-8" d="M606.07,275.54l-7.42,1.58a91.81,91.81,0,0,0-16.91-2A84.85,84.85,0,0,1,566,273.36a5.25,5.25,0,0,1-2.67-1.55c-.65-.78-.71-1.34-1.21-1.9a16.33,16.33,0,0,1-2.35-2.92c-.46-1-.73-1.24-1.3-.46s.4,2.62.64,3.15a5,5,0,0,1,.21,1.74c0,.13-3.5-.93-4-1.75a2.27,2.27,0,0,0-.95,1.28c-.11.45.28,1,.18,1.18s-.53.43-.63.79a2.68,2.68,0,0,0,.2,1.33,7.8,7.8,0,0,0-.6,1,1.31,1.31,0,0,0,.3,1.24c-.08.33-.41.76-.31,1.13.18.7,2.19,1.48,4.11,1.73,2.94.38,5.9-1.16,9.24-.31h0c14.73,5.57,30.92,9.27,34.16,9.62,3.45.38,4.75-1.27,5.34-2.26S606.07,275.54,606.07,275.54Z" transform="translate(-22 -49.29)"/><path class="cls-68" d="M526.53,213.05c-.06.13-.12.27-.19.4-.57,1-1.47,1.66-2.1,1.48l-.19.24c-.33.4-.6.63-.73.58l-2.78-.91-.44-.14,3.88-7.16,2.64,2.12c.13.11,0,.58-.19,1.23A2,2,0,0,1,526.53,213.05Z" transform="translate(-22 -49.29)"/><path class="cls-69" d="M520.1,214.7s-3.07,6.59-6.91,9.81a1.21,1.21,0,0,1-1.25.17l-.41-.2a14.36,14.36,0,0,1-4.06-2.86,1.19,1.19,0,0,1,.31-1.85,21.35,21.35,0,0,0,6.84-6.1c.36-.49.72-1,1.08-1.57Z" transform="translate(-22 -49.29)"/><path class="cls-70" d="M514.09,212.57a5.48,5.48,0,0,1-.46.67,3.18,3.18,0,0,1-3.47,1.35.35.35,0,0,1-.23-.42.34.34,0,0,1,.29-.24,2.76,2.76,0,0,0,1.92-1.22,4.92,4.92,0,0,0,.58-1.15Z" transform="translate(-22 -49.29)"/><path class="cls-71" d="M523.7,212l-.25.44c-1.13,2-2.24,3.46-2.54,3.3-13.36-7.25-22-3.67-22-3.67l3.07-6.33,2.12-4.36,6.13-10.17s1.7,9.16,15.06,16.41C525.63,207.82,524.91,209.78,523.7,212Z" transform="translate(-22 -49.29)"/><path class="cls-72" d="M505.58,191.9a27.26,27.26,0,0,1,1.62-2.26c.58-.69.89-.9,1.16-.75,0,0,1.81.79,1.89,2.34a1,1,0,0,1,0,.43h0c-.29,1.42-2.22,5.62-4.83,10.43s-5.08,8.72-6.11,9.74h0a.83.83,0,0,1-.35.26c-1.34.78-3-.31-3-.31h0c-.27-.15-.28-.52,0-1.38a26.49,26.49,0,0,1,1-2.59c1-2.22,2.41-5.1,4-8.1S504.25,193.93,505.58,191.9Z" transform="translate(-22 -49.29)"/><path class="cls-8" d="M513.75,224s2.2,1.56,2.49,1.67c.67.25,1.18,11,1.69,21.6.8,16.49,2.26,21,2.26,21l11.47-13.44S521.18,221.54,521,220.62c-.12-.58-.82-2.24-1.12-3.06a4.45,4.45,0,0,0-1.2-1.88,10.76,10.76,0,0,0-4-1.51c-.35.13-.17.69.14,1.27s1.74,1.13,2.15,1.39c.25.16.43.94.54,1.53a1.86,1.86,0,0,1-.23,1.26c-.22.37-.52.89-.92,1.44A31.45,31.45,0,0,1,513.75,224Z" transform="translate(-22 -49.29)"/><path class="cls-8" d="M510.35,217.1l2.33,1.75c.3.24,1.09.56,1.43.19s.16-.82-.18-1.25a19.82,19.82,0,0,0-2.26-2.19C511,215.12,509.63,216.11,510.35,217.1Z" transform="translate(-22 -49.29)"/><path class="cls-8" d="M509.29,218.26l2,1.52c.27.2.88.39,1.18.09s.2-.63-.09-1a17.87,17.87,0,0,0-2-1.89C509.83,216.55,508.66,217.41,509.29,218.26Z" transform="translate(-22 -49.29)"/><path class="cls-8" d="M508.51,219.35s1.52,1.13,1.78,1.34.78.34,1,.08.17-.56-.08-.89a16.53,16.53,0,0,0-1.73-1.67C509,217.84,508,218.6,508.51,219.35Z" transform="translate(-22 -49.29)"/><path class="cls-8" d="M511.71,215.85l2,1.54c.27.21.92.42,1.2.1s.21-.65-.09-1a18.4,18.4,0,0,0-2-1.92C512.26,214.11,511.07,215,511.71,215.85Z" transform="translate(-22 -49.29)"/><circle class="cls-73" cx="428.87" cy="75.72" r="17.2"/><path class="cls-6" d="M439.8,121.93a15.82,15.82,0,0,1,8.46,5,.27.27,0,0,0,.44,0,32,32,0,0,1,13.17-11,.29.29,0,0,1,.3.48c-3.52,2.79-10.78,9.3-13.32,17.46a.28.28,0,0,1-.53,0,24.72,24.72,0,0,0-8.74-11.49A.28.28,0,0,1,439.8,121.93Z" transform="translate(-22 -49.29)"/><rect class="cls-6" x="328.73" y="252.88" width="102.76" height="5.85" rx="2.57"/><path class="cls-6" d="M450.57,321.47H353.65a2.93,2.93,0,0,1-2.92-2.93h0a2.92,2.92,0,0,1,2.92-2.92h96.92a2.92,2.92,0,0,1,2.92,2.92h0A2.93,2.93,0,0,1,450.57,321.47Z" transform="translate(-22 -49.29)"/><path class="cls-6" d="M450.57,334.91H353.65a2.92,2.92,0,0,1-2.92-2.92h0a2.93,2.93,0,0,1,2.92-2.93h96.92a2.93,2.93,0,0,1,2.92,2.93h0A2.92,2.92,0,0,1,450.57,334.91Z" transform="translate(-22 -49.29)"/><path class="cls-6" d="M450.57,348.35H353.65a2.92,2.92,0,0,1-2.92-2.92h0a2.93,2.93,0,0,1,2.92-2.93h96.92a2.93,2.93,0,0,1,2.92,2.93h0A2.92,2.92,0,0,1,450.57,348.35Z" transform="translate(-22 -49.29)"/><path class="cls-6" d="M450.57,361.79H353.65a2.92,2.92,0,0,1-2.92-2.92h0a2.93,2.93,0,0,1,2.92-2.93h96.92a2.93,2.93,0,0,1,2.92,2.93h0A2.92,2.92,0,0,1,450.57,361.79Z" transform="translate(-22 -49.29)"/><path class="cls-74" d="M602,191.84a16.82,16.82,0,1,1,4.48,4.2.62.62,0,0,0-.63,0l-6.34,3.28a.33.33,0,0,1-.44-.43l3-6.38A.62.62,0,0,0,602,191.84Z" transform="translate(-22 -49.29)"/><path class="cls-6" d="M621.7,182.17a2,2,0,1,0,2-2A2,2,0,0,0,621.7,182.17Z" transform="translate(-22 -49.29)"/><path class="cls-6" d="M613.59,182.17a2,2,0,1,0,2-2A2,2,0,0,0,613.59,182.17Z" transform="translate(-22 -49.29)"/><path class="cls-6" d="M605.48,182.17a2,2,0,1,0,2-2A2,2,0,0,0,605.48,182.17Z" transform="translate(-22 -49.29)"/><path class="cls-75" d="M148.5,208.52a16.84,16.84,0,1,0-4.47,4.19.62.62,0,0,1,.62,0L151,216a.33.33,0,0,0,.44-.43l-3-6.38A.64.64,0,0,1,148.5,208.52Z" transform="translate(-22 -49.29)"/><path class="cls-6" d="M128.84,198.85a2,2,0,1,1-2-2A2,2,0,0,1,128.84,198.85Z" transform="translate(-22 -49.29)"/><path class="cls-6" d="M136.94,198.85a2,2,0,1,1-2-2A2,2,0,0,1,136.94,198.85Z" transform="translate(-22 -49.29)"/><path class="cls-6" d="M145.05,198.85a2,2,0,1,1-2-2A2,2,0,0,1,145.05,198.85Z" transform="translate(-22 -49.29)"/><rect class="cls-76" x="513.06" y="37.54" width="31.73" height="31.73" rx="2.55"/><path class="cls-77" d="M556.08,95.41a5.16,5.16,0,1,1-5.16-5.16A5.16,5.16,0,0,1,556.08,95.41Z" transform="translate(-22 -49.29)"/><path class="cls-78" d="M551.11,101.92A10.11,10.11,0,0,0,541,112.08V114a1.16,1.16,0,0,0,1.16,1.16h17.48a1.16,1.16,0,0,0,1.16-1.16v-2.17A9.9,9.9,0,0,0,551.11,101.92Z" transform="translate(-22 -49.29)"/><rect class="cls-79" x="446.02" y="258.53" width="65.07" height="50.77" rx="3.27"/><path class="cls-6" d="M492.48,322.22a9.26,9.26,0,1,1-9.25-9.25A9.25,9.25,0,0,1,492.48,322.22Z" transform="translate(-22 -49.29)"/><path class="cls-80" d="M483.23,313.67a8.55,8.55,0,0,0-5.13,15.39,8.55,8.55,0,0,0,10.26,0,8.55,8.55,0,0,0-5.13-15.39Zm4.94,14.73v0a4.95,4.95,0,1,0-9.89,0v0a7.94,7.94,0,1,1,9.89,0Z" transform="translate(-22 -49.29)"/><path class="cls-81" d="M483.23,315.76a3.37,3.37,0,1,0,3.37,3.37A3.37,3.37,0,0,0,483.23,315.76Z" transform="translate(-22 -49.29)"/><path class="cls-6" d="M528.34,315.13H498.83a1.08,1.08,0,0,1-1.08-1.08h0a1.08,1.08,0,0,1,1.08-1.08h29.51a1.08,1.08,0,0,1,1.08,1.08h0A1.08,1.08,0,0,1,528.34,315.13Z" transform="translate(-22 -49.29)"/><path class="cls-6" d="M528.34,320.69H498.83a1.08,1.08,0,0,1-1.08-1.08h0a1.09,1.09,0,0,1,1.08-1.09h29.51a1.08,1.08,0,0,1,1.08,1.09h0A1.08,1.08,0,0,1,528.34,320.69Z" transform="translate(-22 -49.29)"/><path class="cls-6" d="M528.34,326.25H498.83a1.09,1.09,0,0,1-1.08-1.09h0a1.09,1.09,0,0,1,1.08-1.08h29.51a1.08,1.08,0,0,1,1.08,1.08h0A1.08,1.08,0,0,1,528.34,326.25Z" transform="translate(-22 -49.29)"/><path class="cls-6" d="M528.34,331.8H498.83a1.08,1.08,0,0,1-1.08-1.08h0a1.08,1.08,0,0,1,1.08-1.08h29.51a1.08,1.08,0,0,1,1.08,1.08h0A1.08,1.08,0,0,1,528.34,331.8Z" transform="translate(-22 -49.29)"/><path class="cls-6" d="M528.34,337.36h-55.2a1.08,1.08,0,0,1-1.08-1.08h0a1.08,1.08,0,0,1,1.08-1.09h55.2a1.08,1.08,0,0,1,1.08,1.09h0A1.08,1.08,0,0,1,528.34,337.36Z" transform="translate(-22 -49.29)"/><path class="cls-6" d="M528.34,342.92h-55.2a1.08,1.08,0,0,1-1.08-1.09h0a1.08,1.08,0,0,1,1.08-1.08h55.2a1.08,1.08,0,0,1,1.08,1.08h0A1.08,1.08,0,0,1,528.34,342.92Z" transform="translate(-22 -49.29)"/><path class="cls-6" d="M528.34,348.47h-55.2a1.08,1.08,0,0,1-1.08-1.08h0a1.08,1.08,0,0,1,1.08-1.08h55.2a1.08,1.08,0,0,1,1.08,1.08h0A1.08,1.08,0,0,1,528.34,348.47Z" transform="translate(-22 -49.29)"/><path class="cls-6" d="M528.34,354h-55.2a1.08,1.08,0,0,1-1.08-1.08h0a1.08,1.08,0,0,1,1.08-1.09h55.2a1.08,1.08,0,0,1,1.08,1.09h0A1.08,1.08,0,0,1,528.34,354Z" transform="translate(-22 -49.29)"/><g class="cls-82"><path class="cls-83" d="M639.25,407.09a24,24,0,0,0-.15-9.74c-1.34-6.61-9.89-20.66-22.36-22.32a.6.6,0,0,0-.59.9,90.42,90.42,0,0,1,6.24,12.35c3.18,8.33,7.84,17.09,15.88,19.52a46.47,46.47,0,0,1,4.31,15.64.61.61,0,0,0,.64.55h0a.6.6,0,0,0,.56-.65A48,48,0,0,0,639.25,407.09Z" transform="translate(-22 -49.29)"/><path class="cls-84" d="M644.35,404.39a33.05,33.05,0,0,0,.07-19.36c-3.25-10.14-14.67-19.32-18.58-22.23a.59.59,0,0,0-.93.62c1.13,4.58,4.58,17.95,7.5,24.3,3,6.58,8.72,14.22,10.76,16.88a136.18,136.18,0,0,1,2.55,26.7.6.6,0,0,0,.58.61h0a.6.6,0,0,0,.62-.59A138.07,138.07,0,0,0,644.35,404.39Z" transform="translate(-22 -49.29)"/><path class="cls-85" d="M671.77,367.85c-3.69,2.18-14.64,9.38-17.9,19.55-2.75,8.58-.77,14.94.18,17.24a135.62,135.62,0,0,0-3.95,29.83.59.59,0,0,0,.6.6h0a.59.59,0,0,0,.6-.58A134.38,134.38,0,0,1,655.2,405a41.74,41.74,0,0,0,10-13c3-6.4,6.39-19.24,7.48-23.44A.6.6,0,0,0,671.77,367.85Z" transform="translate(-22 -49.29)"/><path class="cls-86" d="M666.89,352.44a.6.6,0,0,0-.95-.46c-3.07,2.27-13.21,10.5-16.22,22.52a23.12,23.12,0,0,0,1.72,16.17,136,136,0,0,0-3.39,42.73.59.59,0,0,0,.67.53h0a.59.59,0,0,0,.53-.64A134.56,134.56,0,0,1,652.58,391c1.87-1.23,7.19-5.52,11.25-16.64C667.11,365.44,667,355.65,666.89,352.44Z" transform="translate(-22 -49.29)"/><path class="cls-87" d="M636.61,454.63h20.64a.61.61,0,0,0,.59-.5l5.39-33a3.24,3.24,0,0,0-3.2-3.77h-26.2a3.24,3.24,0,0,0-3.2,3.77l5.39,33A.61.61,0,0,0,636.61,454.63Z" transform="translate(-22 -49.29)"/></g><polygon class="cls-88" points="237.85 82.6 211.14 100.67 184.44 82.6 237.85 82.6"/><path class="cls-88" d="M259.85,131.89l-24.7-25.19a2.81,2.81,0,0,0-4,0l-24.7,25.19Z" transform="translate(-22 -49.29)"/><path class="cls-89" d="M190.38,64.21H231.9a1.56,1.56,0,0,1,1.56,1.56v42.58a0,0,0,0,1,0,0H188.82a0,0,0,0,1,0,0V65.77A1.56,1.56,0,0,1,190.38,64.21Z"/><path class="cls-90" d="M190.38,64.21H231.9a1.56,1.56,0,0,1,1.56,1.56v4.35a0,0,0,0,1,0,0H188.82a0,0,0,0,1,0,0V65.77A1.56,1.56,0,0,1,190.38,64.21Z"/><path class="cls-6" d="M215.66,116.46a1.26,1.26,0,1,1-1.26-1.26A1.27,1.27,0,0,1,215.66,116.46Z" transform="translate(-22 -49.29)"/><path class="cls-6" d="M219.77,116.46a1.26,1.26,0,1,1-1.25-1.26A1.26,1.26,0,0,1,219.77,116.46Z" transform="translate(-22 -49.29)"/><path class="cls-6" d="M223.89,116.46a1.26,1.26,0,1,1-1.26-1.26A1.26,1.26,0,0,1,223.89,116.46Z" transform="translate(-22 -49.29)"/><path class="cls-6" d="M224.47,134.43h-6.83l-1.35,3.16h-2.61l6.14-13.65h2.5l6.16,13.65h-2.65Zm-.84-2-2.58-6-2.55,6Z" transform="translate(-22 -49.29)"/><rect class="cls-6" x="209.69" y="74.41" width="20.23" height="1.27"/><rect class="cls-6" x="209.69" y="77.85" width="20.23" height="1.27"/><rect class="cls-6" x="209.69" y="81.29" width="20.23" height="1.27"/><rect class="cls-6" x="209.69" y="84.73" width="20.23" height="1.27"/><rect class="cls-6" x="209.69" y="88.17" width="20.23" height="1.27"/><rect class="cls-6" x="192.4" y="91.61" width="37.52" height="1.27"/><rect class="cls-6" x="192.4" y="95.05" width="37.52" height="1.27"/><rect class="cls-6" x="192.4" y="98.5" width="37.52" height="1.27"/><rect class="cls-6" x="192.4" y="101.94" width="37.52" height="1.27"/><path class="cls-91" d="M259.84,131.89v32.94a3.2,3.2,0,0,1-3.2,3.2h-47a3.21,3.21,0,0,1-3.21-3.2V131.89L233.14,150h0Z" transform="translate(-22 -49.29)"/><path class="cls-92" d="M259.84,131.89v32.94a3.2,3.2,0,0,1-1.13,2.44L233.15,150Z" transform="translate(-22 -49.29)"/></g></g></svg>