<svg xmlns="http://www.w3.org/2000/svg" width="20" height="20" viewBox="0 0 20 20" fill="none">
  <path fill-rule="evenodd" clip-rule="evenodd" d="M3.40796 3.96243C2.5 5.06878 2.5 6.71252 2.5 10C2.5 13.2875 2.5 14.9312 3.40796 16.0376C3.57418 16.2401 3.75989 16.4258 3.96243 16.592C5.06878 17.5 6.71252 17.5 10 17.5C13.2875 17.5 14.9312 17.5 16.0376 16.592C16.2401 16.4258 16.4258 16.2401 16.592 16.0376C17.5 14.9312 17.5 13.2875 17.5 10C17.5 6.71252 17.5 5.06878 16.592 3.96243C16.4258 3.75989 16.2401 3.57418 16.0376 3.40796C14.9312 2.5 13.2875 2.5 10 2.5C6.71252 2.5 5.06878 2.5 3.96243 3.40796C3.75989 3.57418 3.57418 3.75989 3.40796 3.96243ZM9 5.83333V9L5.83333 9V11H9L9 14.1667H11L11 11H14.1667V9H11V5.83333H9Z" fill="#407BFF"/>
</svg>