<svg width="21" height="21" viewBox="0 0 21 21" fill="none" xmlns="http://www.w3.org/2000/svg">
<path d="M16.9046 10.7559V13.4051C16.9046 15.7434 16.9046 16.9125 16.1782 17.6389C15.4517 18.3653 14.2826 18.3653 11.9443 18.3653H5.49043C4.32305 18.3653 3.37671 17.419 3.37671 16.2516V16.2516C3.37671 15.0842 4.32306 14.1379 5.49044 14.1379H11.9444C14.2826 14.1379 15.4517 14.1379 16.1782 13.4115C16.9046 12.6851 16.9046 11.5159 16.9046 9.17765V8.10669C16.9046 5.76843 16.9046 4.5993 16.1782 3.87289C15.4517 3.14648 14.2826 3.14648 11.9443 3.14648H8.33692C5.99865 3.14648 4.82952 3.14648 4.10312 3.87289C3.37671 4.5993 3.37671 5.76843 3.37671 8.1067V16.2516" stroke="#407BFF" stroke-width="1.24005"/>
<path d="M7.60425 9.065L8.41838 9.87914C8.90265 10.3634 9.68781 10.3634 10.1721 9.87914L12.6772 7.37402" stroke="#407BFF" stroke-width="1.24005" stroke-linecap="round"/>
</svg>
