<svg xmlns="http://www.w3.org/2000/svg" width="24" height="24" viewBox="0 0 24 24" fill="none">
  <path d="M11.6877 19.4791L4.77866 10.8428C4.34685 10.3031 4.13095 10.0332 4.07294 9.70794C4.01493 9.3827 4.12422 9.05482 4.34281 8.39905L4.65997 7.44757C5.23138 5.73335 5.51708 4.87624 6.19726 4.386C6.87744 3.89575 7.78091 3.89575 9.58786 3.89575H13.7875C15.5944 3.89575 16.4979 3.89575 17.1781 4.386C17.8582 4.87624 18.1439 5.73335 18.7154 7.44757L19.0325 8.39905C19.2511 9.05482 19.3604 9.3827 19.3024 9.70794C19.2444 10.0332 19.0285 10.3031 18.5967 10.8428L11.6877 19.4791ZM11.6877 19.4791L15.0965 8.76554M11.6877 19.4791L8.27881 8.76554M18.9923 9.7395L15.0965 8.76554M15.0965 8.76554L13.6356 4.86971M15.0965 8.76554H8.27881M9.73975 4.86971L8.27881 8.76554M8.27881 8.76554L4.38298 9.7395" stroke="#407BFF" stroke-linecap="round"/>
</svg>