<svg xmlns="http://www.w3.org/2000/svg" width="24" height="24" viewBox="0 0 24 24" fill="none">
  <path d="M14.1852 19.2C14.1852 19.6501 14.5501 20.015 15.0002 20.015C15.4503 20.015 15.8152 19.6501 15.8152 19.2H14.1852ZM3.3852 19.2C3.3852 19.6501 3.75008 20.015 4.2002 20.015C4.65031 20.015 5.0152 19.6501 5.0152 19.2H3.3852ZM15.6002 11.185C15.1501 11.185 14.7852 11.5499 14.7852 12C14.7852 12.4501 15.1501 12.815 15.6002 12.815V11.185ZM19.2002 12.815C19.6503 12.815 20.0152 12.4501 20.0152 12C20.0152 11.5499 19.6503 11.185 19.2002 11.185V12.815ZM18.2152 10.2C18.2152 9.74991 17.8503 9.38502 17.4002 9.38502C16.9501 9.38502 16.5852 9.74991 16.5852 10.2H18.2152ZM16.5852 13.8C16.5852 14.2501 16.9501 14.615 17.4002 14.615C17.8503 14.615 18.2152 14.2501 18.2152 13.8H16.5852ZM12.8352 9.54002C12.8352 11.3934 11.37 12.865 9.6002 12.865V14.495C12.3039 14.495 14.4652 12.2596 14.4652 9.54002H12.8352ZM9.6002 12.865C7.83035 12.865 6.3652 11.3934 6.3652 9.54002H4.7352C4.7352 12.2596 6.89654 14.495 9.6002 14.495V12.865ZM6.3652 9.54002C6.3652 7.6867 7.83035 6.21502 9.6002 6.21502V4.58502C6.89654 4.58502 4.7352 6.82043 4.7352 9.54002H6.3652ZM9.6002 6.21502C11.37 6.21502 12.8352 7.6867 12.8352 9.54002H14.4652C14.4652 6.82043 12.3039 4.58502 9.6002 4.58502V6.21502ZM5.0152 19.2C5.0152 18.4252 5.01645 17.7538 5.093 17.1547C5.1687 16.5622 5.31136 16.107 5.55048 15.7531C5.9926 15.0988 6.98299 14.495 9.6002 14.495V12.865C6.8174 12.865 5.10779 13.4969 4.19991 14.8405C3.76403 15.4855 3.56919 16.2198 3.47614 16.9481C3.38394 17.6698 3.3852 18.4506 3.3852 19.2H5.0152ZM9.58209 14.4948C12.2087 14.5532 13.2082 15.1542 13.6531 15.8028C13.8907 16.1491 14.0323 16.5921 14.1076 17.173C14.1839 17.7618 14.1852 18.4247 14.1852 19.2H15.8152C15.8152 18.451 15.8165 17.6767 15.7241 16.9635C15.6306 16.2424 15.4347 15.5185 14.9973 14.8807C14.0922 13.5615 12.3917 12.9269 9.6183 12.8652L9.58209 14.4948ZM15.6002 12.815H17.4002V11.185H15.6002V12.815ZM17.4002 12.815H19.2002V11.185H17.4002V12.815ZM16.5852 10.2V12H18.2152V10.2H16.5852ZM16.5852 12V13.8H18.2152V12H16.5852Z" fill="#407BFF"/>
</svg>