<svg width="28" height="28" viewBox="0 0 28 28" fill="none" xmlns="http://www.w3.org/2000/svg">
<path d="M8.4025 11.7598L9.01095 12.8246C9.31386 13.3547 9.46531 13.6197 9.46531 13.9103C9.46531 14.2009 9.31386 14.4659 9.01095 14.996L8.4025 16.0608C7.04759 18.4319 6.37013 19.6174 6.89842 20.2053C7.42671 20.7933 8.67768 20.246 11.1796 19.1514L18.5767 15.9151C20.5413 15.0556 21.5235 14.6259 21.5235 13.9103C21.5235 13.1947 20.5413 12.7649 18.5767 11.9054L11.1796 8.66922C8.67768 7.57462 7.42671 7.02732 6.89842 7.61524C6.37013 8.20316 7.04759 9.3887 8.4025 11.7598Z" stroke="#407BFF" stroke-width="1.09416"/>
</svg>
