<svg width="23" height="21" viewBox="0 0 23 21" fill="none" xmlns="http://www.w3.org/2000/svg">
<path d="M1 8.07065C1 7.03906 1 6.52327 1.32047 6.2028C1.64095 5.88232 2.15674 5.88232 3.18833 5.88232H19.9881C21.0197 5.88232 21.5355 5.88232 21.856 6.2028C22.1765 6.52327 22.1765 7.03907 22.1765 8.07065V9.99997C22.1765 10.626 22.1765 10.939 22.0522 11.1771C21.9487 11.3752 21.787 11.5369 21.5888 11.6404C21.3508 11.7647 21.0378 11.7647 20.4118 11.7647V11.7647C19.7857 11.7647 19.4727 11.7647 19.2347 11.889C19.0365 11.9925 18.8749 12.1542 18.7714 12.3523C18.6471 12.5903 18.6471 12.9033 18.6471 13.5294V17.8116C18.6471 18.8432 18.6471 19.359 18.3266 19.6795C18.0061 20 17.4903 20 16.4587 20H6.71774C5.68615 20 5.17036 20 4.84988 19.6795C4.52941 19.359 4.52941 18.8432 4.52941 17.8116V13.5294C4.52941 12.9033 4.52941 12.5903 4.4051 12.3523C4.30161 12.1542 4.13993 11.9925 3.94179 11.889C3.70377 11.7647 3.39075 11.7647 2.76471 11.7647V11.7647C2.13866 11.7647 1.82564 11.7647 1.58762 11.6404C1.38949 11.5369 1.2278 11.3752 1.12431 11.1771C1 10.939 1 10.626 1 9.99997V8.07065Z" stroke="#407BFF" stroke-width="1.09416"/>
<path d="M3.35303 11.7646H19.8236" stroke="#407BFF" stroke-width="1.09416" stroke-linecap="round"/>
<path d="M11.5881 4.70581L11.5881 19.9999" stroke="#407BFF" stroke-width="1.09416" stroke-linecap="round"/>
<path d="M11.5883 4.70588L10.5547 3.67229C9.30025 2.41781 7.77092 1.47263 6.08785 0.911609V0.911609C4.74243 0.463134 3.35303 1.46456 3.35303 2.88276V3.12862C3.35303 4.07055 3.95576 4.90679 4.84935 5.20465L6.88244 5.88235" stroke="#407BFF" stroke-width="1.09416" stroke-linecap="round"/>
<path d="M11.5882 4.70588L12.6218 3.67229C13.8763 2.41781 15.4056 1.47263 17.0887 0.911609V0.911609C18.4341 0.463134 19.8235 1.46456 19.8235 2.88276V3.12862C19.8235 4.07055 19.2208 4.90679 18.3272 5.20465L16.2941 5.88235" stroke="#407BFF" stroke-width="1.09416" stroke-linecap="round"/>
</svg>
