<svg xmlns="http://www.w3.org/2000/svg" width="24" height="24" viewBox="0 0 24 24" fill="none">
  <path d="M10.7998 13.2L13.2009 17.6913C13.8535 18.6049 14.1797 19.062 14.5327 19.1612C14.8397 19.2475 15.1691 19.1884 15.4271 19.001C15.7239 18.7856 15.8718 18.2438 16.1672 17.1607L18.8972 7.15052C19.1489 6.22777 19.2744 5.76641 19.1531 5.44857C19.0473 5.17139 18.8283 4.95248 18.5512 4.84665C18.2333 4.72529 17.7719 4.8515 16.8492 5.10316L6.83889 7.8332C5.75577 8.12859 5.21426 8.27617 4.99882 8.57288C4.81149 8.83088 4.75239 9.16035 4.83867 9.46728C4.93789 9.82028 5.39465 10.1462 6.30821 10.7987L10.7998 13.2ZM10.7998 13.2L13.7686 10.2314" stroke="#407BFF" stroke-linecap="round"/>
</svg>